<svg id="svg" version="1.1" xmlns="http://www.w3.org/2000/svg" xmlns:xlink="http://www.w3.org/1999/xlink" width="400" height="400" viewBox="0, 0, 400,400"><g id="svgg"><path id="path0" d="M179.800 91.281 C 178.351 91.787,176.534 93.407,175.764 94.880 C 175.290 95.788,175.200 102.187,175.200 135.100 C 175.200 165.009,175.087 174.353,174.720 174.720 C 174.353 175.087,164.945 175.200,134.813 175.200 L 95.386 175.200 93.950 176.176 C 90.982 178.193,91.014 177.954,90.885 198.763 C 90.756 219.422,90.869 220.752,92.915 222.688 C 95.254 224.901,93.231 224.800,135.094 224.800 C 165.007 224.800,174.353 224.913,174.720 225.280 C 175.087 225.647,175.200 234.991,175.200 264.900 C 175.200 307.502,175.066 305.003,177.464 307.277 C 179.325 309.041,180.976 309.180,200.200 309.188 C 219.395 309.196,220.579 309.094,222.536 307.263 C 224.933 305.020,224.800 307.503,224.800 264.900 C 224.800 234.991,224.913 225.647,225.280 225.280 C 225.647 224.913,235.016 224.798,264.980 224.793 L 304.200 224.787 305.765 223.893 C 309.059 222.012,309.000 222.450,309.000 200.000 C 309.000 177.550,309.059 177.988,305.765 176.107 L 304.200 175.213 264.914 175.207 C 226.486 175.200,225.619 175.183,225.214 174.426 C 224.937 173.908,224.800 160.719,224.800 134.485 L 224.800 95.318 223.897 93.959 C 221.789 90.788,221.851 90.796,200.215 90.832 C 187.959 90.852,180.565 91.015,179.800 91.281 " stroke="none" fill="#fbfbfb" fill-rule="evenodd"></path><path id="path1" d="M225.392 135.400 C 225.392 156.740,225.441 165.411,225.500 154.670 C 225.559 143.928,225.559 126.468,225.500 115.870 C 225.441 105.271,225.392 114.060,225.392 135.400 M116.130 174.700 C 126.872 174.759,144.332 174.759,154.930 174.700 C 165.529 174.641,156.740 174.592,135.400 174.592 C 114.060 174.592,105.389 174.641,116.130 174.700 M244.900 174.700 C 255.405 174.759,272.595 174.759,283.100 174.700 C 293.605 174.641,285.010 174.592,264.000 174.592 C 242.990 174.592,234.395 174.641,244.900 174.700 M309.385 200.000 C 309.385 210.890,309.437 215.345,309.500 209.900 C 309.563 204.455,309.563 195.545,309.500 190.100 C 309.437 184.655,309.385 189.110,309.385 200.000 M90.585 200.000 C 90.585 210.670,90.637 215.035,90.700 209.700 C 90.763 204.365,90.763 195.635,90.700 190.300 C 90.637 184.965,90.585 189.330,90.585 200.000 M244.930 225.500 C 255.452 225.559,272.552 225.559,282.930 225.500 C 293.309 225.441,284.700 225.392,263.800 225.392 C 242.900 225.392,234.409 225.441,244.930 225.500 M174.592 263.800 C 174.592 284.700,174.641 293.309,174.700 282.930 C 174.759 272.552,174.759 255.452,174.700 244.930 C 174.641 234.409,174.592 242.900,174.592 263.800 M225.392 263.800 C 225.392 284.700,225.441 293.309,225.500 282.930 C 225.559 272.552,225.559 255.452,225.500 244.930 C 225.441 234.409,225.392 242.900,225.392 263.800 M190.300 309.500 C 195.635 309.563,204.365 309.563,209.700 309.500 C 215.035 309.437,210.670 309.385,200.000 309.385 C 189.330 309.385,184.965 309.437,190.300 309.500 " stroke="none" fill="#a1d4a4" fill-rule="evenodd"></path><path id="path2" d="M61.978 53.500 L 60.600 55.000 62.100 53.622 C 63.496 52.338,63.784 52.000,63.478 52.000 C 63.412 52.000,62.737 52.675,61.978 53.500 M178.200 91.144 C 177.540 91.552,176.643 92.316,176.206 92.843 C 175.532 93.656,175.592 93.638,176.606 92.722 C 177.263 92.129,178.430 91.371,179.200 91.038 C 179.970 90.704,180.330 90.425,180.000 90.417 C 179.670 90.409,178.860 90.737,178.200 91.144 M223.599 92.700 C 224.122 93.415,224.613 94.000,224.689 94.000 C 224.993 94.000,224.001 92.500,223.345 91.967 C 222.913 91.616,223.010 91.896,223.599 92.700 M174.498 135.067 C 174.421 165.712,174.294 173.976,173.900 174.135 C 173.508 174.293,173.511 174.344,173.913 174.368 C 174.803 174.423,174.808 174.154,174.701 134.800 L 174.596 96.200 174.498 135.067 M225.695 136.100 C 225.643 157.165,225.735 174.400,225.900 174.400 C 226.172 174.400,226.169 147.036,225.894 111.400 C 225.836 103.920,225.747 115.035,225.695 136.100 M304.833 174.921 C 304.925 174.988,305.540 175.358,306.200 175.745 L 307.400 176.447 306.456 175.624 C 305.936 175.171,305.321 174.800,305.089 174.800 C 304.857 174.800,304.742 174.854,304.833 174.921 M90.649 179.015 C 90.512 179.373,90.415 179.966,90.434 180.333 C 90.453 180.700,90.627 180.469,90.821 179.820 C 91.198 178.558,91.065 177.933,90.649 179.015 M90.812 221.106 C 90.805 221.384,91.385 222.202,92.100 222.924 C 92.815 223.646,93.019 223.779,92.554 223.219 C 92.088 222.658,91.508 221.840,91.266 221.400 C 91.023 220.960,90.819 220.828,90.812 221.106 M305.800 224.427 C 305.140 224.850,304.805 225.197,305.056 225.198 C 305.306 225.199,305.936 224.846,306.456 224.413 C 307.645 223.423,307.359 223.429,305.800 224.427 M115.730 225.500 C 126.472 225.559,143.932 225.559,154.530 225.500 C 165.129 225.441,156.340 225.392,135.000 225.392 C 113.660 225.392,104.989 225.441,115.730 225.500 M302.100 225.476 C 302.485 225.576,303.115 225.576,303.500 225.476 C 303.885 225.375,303.570 225.293,302.800 225.293 C 302.030 225.293,301.715 225.375,302.100 225.476 M174.493 302.800 C 174.493 303.570,174.575 303.885,174.676 303.500 C 174.776 303.115,174.776 302.485,174.676 302.100 C 174.575 301.715,174.493 302.030,174.493 302.800 M225.293 302.800 C 225.293 303.570,225.375 303.885,225.476 303.500 C 225.576 303.115,225.576 302.485,225.476 302.100 C 225.375 301.715,225.293 302.030,225.293 302.800 M177.076 307.900 C 177.798 308.615,178.616 309.195,178.894 309.188 C 179.172 309.181,179.040 308.977,178.600 308.734 C 178.160 308.492,177.342 307.912,176.781 307.446 C 176.221 306.981,176.354 307.185,177.076 307.900 M223.158 307.424 C 222.594 307.988,221.428 308.700,220.567 309.007 C 219.705 309.314,219.324 309.573,219.720 309.582 C 220.730 309.607,222.426 308.662,223.570 307.438 C 224.823 306.097,224.496 306.086,223.158 307.424 M60.800 345.325 C 60.800 345.394,61.385 345.979,62.100 346.625 L 63.400 347.800 62.225 346.500 C 61.130 345.288,60.800 345.016,60.800 345.325 M337.578 346.700 L 336.200 348.200 337.700 346.822 C 339.096 345.538,339.384 345.200,339.078 345.200 C 339.012 345.200,338.337 345.875,337.578 346.700 " stroke="none" fill="#90cb92" fill-rule="evenodd"></path><path id="path3" d="M173.528 0.564 C 172.939 0.872,172.344 1.011,172.207 0.873 C 172.069 0.736,171.789 0.888,171.584 1.212 C 171.272 1.705,171.211 1.687,171.206 1.100 C 171.203 0.715,170.936 0.400,170.613 0.400 C 170.226 0.400,170.109 0.639,170.271 1.100 C 170.472 1.671,170.419 1.708,169.979 1.300 C 169.302 0.672,168.657 0.646,169.038 1.262 C 169.219 1.554,169.148 1.615,168.844 1.427 C 168.581 1.264,168.142 1.316,167.869 1.543 C 167.557 1.802,167.156 1.817,166.787 1.583 C 165.824 0.974,165.200 1.148,165.200 2.024 C 165.200 2.480,165.019 2.735,164.793 2.596 C 164.570 2.458,164.509 2.147,164.659 1.904 C 164.845 1.603,164.690 1.570,164.166 1.799 C 163.745 1.984,162.860 2.153,162.200 2.176 C 160.575 2.232,159.137 2.775,159.417 3.228 C 159.548 3.439,159.195 3.426,158.597 3.199 C 157.251 2.687,157.089 2.697,157.442 3.268 C 157.635 3.580,157.516 3.653,157.086 3.488 C 156.606 3.304,156.502 3.415,156.679 3.920 C 156.874 4.474,156.818 4.508,156.379 4.100 C 155.714 3.483,155.055 3.441,155.425 4.040 C 155.608 4.336,155.408 4.326,154.814 4.007 C 154.329 3.748,153.827 3.640,153.699 3.768 C 153.571 3.895,153.713 4.000,154.013 4.000 C 154.449 4.000,154.459 4.101,154.063 4.497 C 153.668 4.892,153.500 4.886,153.241 4.467 C 152.979 4.043,152.794 4.063,152.284 4.574 C 151.895 4.963,151.555 5.051,151.402 4.803 C 151.265 4.581,150.938 4.403,150.676 4.406 C 150.382 4.410,150.430 4.576,150.800 4.841 C 151.282 5.185,151.223 5.231,150.500 5.072 C 150.005 4.964,149.600 5.049,149.600 5.261 C 149.600 5.473,149.420 5.536,149.200 5.400 C 148.980 5.264,148.800 5.365,148.800 5.625 C 148.800 5.978,148.649 5.972,148.202 5.602 C 147.720 5.202,147.408 5.234,146.591 5.769 C 146.033 6.134,145.395 6.320,145.171 6.182 C 144.948 6.044,144.318 6.224,143.771 6.582 C 143.225 6.940,142.557 7.109,142.289 6.958 C 141.922 6.751,141.925 6.817,142.300 7.221 C 142.976 7.950,142.929 8.400,142.176 8.400 C 141.833 8.400,141.656 8.232,141.783 8.028 C 141.909 7.823,141.830 7.542,141.607 7.404 C 141.383 7.266,141.200 7.354,141.200 7.600 C 141.200 7.846,141.040 7.949,140.845 7.828 C 140.650 7.707,140.266 7.879,139.992 8.209 C 139.613 8.666,139.363 8.701,138.947 8.356 C 138.422 7.920,138.220 8.150,138.381 9.000 C 138.423 9.220,138.228 9.175,137.949 8.900 C 137.228 8.191,136.668 8.280,136.966 9.057 C 137.162 9.567,137.100 9.615,136.688 9.273 C 135.969 8.677,134.394 9.118,134.670 9.839 C 134.789 10.148,134.686 10.400,134.443 10.400 C 134.199 10.400,134.000 10.220,134.000 10.000 C 134.000 9.780,133.809 9.600,133.576 9.600 C 133.343 9.600,133.251 9.760,133.372 9.955 C 133.493 10.150,133.319 10.535,132.986 10.811 C 132.477 11.234,132.425 11.199,132.660 10.587 C 132.881 10.011,132.794 9.917,132.237 10.131 C 131.851 10.279,131.350 10.400,131.124 10.400 C 130.899 10.400,130.828 10.695,130.966 11.057 C 131.177 11.606,131.118 11.630,130.609 11.208 C 130.223 10.887,130.000 10.859,130.000 11.131 C 130.000 11.367,130.315 11.744,130.700 11.968 C 131.085 12.192,131.186 12.381,130.924 12.388 C 130.662 12.395,130.346 12.237,130.223 12.038 C 130.100 11.838,129.641 11.769,129.204 11.883 C 128.767 11.997,128.525 12.278,128.666 12.507 C 128.817 12.751,128.730 12.804,128.455 12.634 C 128.198 12.475,128.091 12.177,128.217 11.972 C 128.344 11.768,128.291 11.600,128.100 11.600 C 127.573 11.600,126.519 12.525,126.278 13.200 C 126.106 13.679,126.057 13.662,126.032 13.113 C 126.011 12.660,125.787 12.507,125.377 12.664 C 125.021 12.801,124.853 13.162,124.986 13.508 C 125.187 14.031,125.126 14.038,124.532 13.557 C 123.976 13.105,123.908 13.102,124.173 13.543 C 124.426 13.963,124.296 14.021,123.600 13.800 C 122.926 13.586,122.779 13.642,123.016 14.025 C 123.242 14.391,123.137 14.461,122.645 14.273 C 122.222 14.110,122.056 14.167,122.213 14.421 C 122.353 14.647,122.835 14.716,123.284 14.573 C 123.778 14.417,124.004 14.470,123.856 14.709 C 123.526 15.243,121.619 15.583,121.720 15.091 C 121.764 14.876,121.550 14.609,121.244 14.498 C 120.869 14.362,120.793 14.465,121.010 14.816 C 121.241 15.190,121.144 15.264,120.666 15.081 C 120.300 14.940,120.000 15.010,120.000 15.236 C 120.000 15.462,119.833 15.544,119.630 15.419 C 119.078 15.077,117.185 16.052,117.478 16.526 C 117.632 16.775,117.469 16.835,117.066 16.681 C 116.700 16.540,116.400 16.610,116.400 16.836 C 116.400 17.062,116.240 17.149,116.045 17.028 C 115.850 16.908,115.588 17.204,115.461 17.687 C 115.335 18.170,115.106 18.439,114.953 18.286 C 114.799 18.133,114.387 18.230,114.037 18.503 C 113.473 18.943,113.463 18.919,113.949 18.300 C 114.718 17.320,114.551 17.374,110.451 19.439 C 107.131 21.111,106.025 22.000,107.267 22.000 C 107.523 22.000,107.618 22.116,107.476 22.257 C 107.335 22.398,106.911 22.263,106.535 21.957 C 105.927 21.462,105.882 21.484,106.134 22.157 C 106.385 22.825,106.341 22.849,105.751 22.360 C 105.151 21.862,105.114 21.906,105.384 22.803 C 105.674 23.771,105.664 23.777,105.054 23.000 C 104.616 22.443,104.422 22.372,104.413 22.767 C 104.406 23.078,104.286 23.220,104.147 23.081 C 103.811 22.745,102.400 23.517,102.400 24.038 C 102.400 24.263,102.625 24.316,102.900 24.155 C 103.175 23.994,103.059 24.252,102.641 24.728 C 101.929 25.540,101.851 25.550,101.354 24.896 C 101.002 24.432,100.821 24.374,100.813 24.724 C 100.806 25.012,100.627 25.140,100.415 25.009 C 100.203 24.878,99.678 25.122,99.248 25.552 C 98.818 25.982,98.362 26.228,98.233 26.100 C 98.105 25.972,98.000 26.087,98.000 26.357 C 98.000 26.627,97.832 26.744,97.628 26.617 C 97.423 26.491,97.149 26.559,97.019 26.769 C 96.889 26.979,97.046 27.298,97.367 27.478 C 97.832 27.738,97.748 27.900,96.958 28.273 C 96.043 28.704,95.982 28.673,96.179 27.871 C 96.296 27.392,96.289 27.226,96.162 27.502 C 96.035 27.779,95.748 27.891,95.523 27.752 C 95.260 27.590,95.219 27.839,95.407 28.450 C 95.568 28.972,95.555 29.263,95.379 29.096 C 95.203 28.929,94.652 29.175,94.155 29.642 L 93.251 30.492 93.455 29.546 C 93.656 28.616,93.649 28.613,93.012 29.400 C 92.657 29.840,92.238 30.200,92.083 30.200 C 91.927 30.200,91.823 30.414,91.852 30.676 C 91.880 30.938,91.635 31.255,91.307 31.380 C 90.873 31.547,90.778 31.417,90.956 30.905 C 91.156 30.333,91.085 30.351,90.584 31.000 C 90.244 31.440,89.838 31.800,89.683 31.800 C 89.527 31.800,89.426 32.031,89.458 32.314 C 89.501 32.692,89.378 32.714,88.994 32.395 C 88.615 32.080,88.389 32.093,88.174 32.442 C 88.003 32.718,88.045 32.820,88.272 32.679 C 88.489 32.545,88.667 32.659,88.667 32.932 C 88.667 33.205,88.350 33.429,87.963 33.429 C 87.576 33.429,87.363 33.259,87.491 33.052 C 87.619 32.846,87.516 32.805,87.262 32.962 C 87.008 33.119,86.800 33.607,86.800 34.047 C 86.800 34.487,86.617 34.734,86.393 34.596 C 86.170 34.458,86.114 34.132,86.270 33.872 C 86.432 33.603,86.262 33.636,85.877 33.949 C 85.096 34.583,84.955 35.389,85.700 34.959 C 85.975 34.801,85.755 35.160,85.210 35.757 C 84.291 36.765,84.184 36.793,83.710 36.145 C 83.256 35.524,83.025 35.664,83.148 36.486 C 83.171 36.643,82.951 36.679,82.659 36.567 C 82.367 36.455,81.874 36.676,81.564 37.059 C 81.199 37.508,81.177 37.647,81.500 37.453 C 81.817 37.263,82.000 37.387,82.000 37.790 C 82.000 38.292,81.839 38.342,81.242 38.022 C 80.342 37.541,79.339 38.445,79.842 39.282 C 80.096 39.704,80.034 39.704,79.513 39.281 C 78.973 38.844,78.782 38.891,78.300 39.578 C 77.986 40.027,77.647 40.313,77.547 40.213 C 77.447 40.113,76.608 40.724,75.683 41.570 C 74.757 42.416,74.000 43.010,74.000 42.892 C 74.000 42.773,73.634 43.008,73.186 43.413 C 72.738 43.818,72.466 44.395,72.581 44.696 C 72.697 44.996,72.628 45.141,72.430 45.018 C 72.231 44.895,71.992 44.931,71.900 45.098 C 71.807 45.264,71.799 45.140,71.883 44.822 C 71.989 44.416,71.784 44.472,71.191 45.008 C 70.382 45.741,70.377 45.795,71.073 46.327 C 71.750 46.844,71.737 46.864,70.900 46.614 C 69.968 46.337,69.605 46.981,70.500 47.326 C 70.775 47.432,70.591 47.498,70.090 47.473 C 69.446 47.441,69.249 47.249,69.415 46.814 C 69.544 46.476,69.008 46.820,68.225 47.578 C 67.441 48.337,66.800 49.192,66.800 49.478 C 66.800 49.765,66.609 50.000,66.376 50.000 C 66.143 50.000,66.069 49.775,66.210 49.500 C 66.352 49.225,65.917 49.583,65.245 50.295 C 64.438 51.148,64.109 51.819,64.280 52.264 C 64.477 52.777,64.378 52.877,63.869 52.682 C 63.415 52.508,63.200 52.631,63.200 53.066 C 63.200 53.787,61.736 55.200,60.988 55.200 C 60.718 55.200,60.270 55.474,59.992 55.810 C 59.714 56.145,59.393 56.327,59.280 56.213 C 58.706 55.639,58.089 56.916,58.406 58.021 C 58.608 58.724,58.594 59.200,58.372 59.200 C 58.167 59.200,58.000 59.026,58.000 58.813 C 58.000 58.599,57.685 58.543,57.300 58.687 C 56.667 58.925,56.656 58.876,57.188 58.175 C 57.573 57.668,57.400 57.735,56.688 58.370 C 55.538 59.395,55.265 59.849,56.100 59.347 C 56.647 59.018,55.671 60.397,55.000 60.900 C 54.749 61.088,54.824 61.347,55.200 61.594 C 55.691 61.916,55.642 61.989,54.933 61.994 C 54.457 61.997,53.992 62.224,53.901 62.498 C 53.809 62.772,53.389 62.997,52.967 62.998 C 52.493 62.999,52.251 63.229,52.333 63.600 C 52.407 63.930,52.330 64.063,52.163 63.896 C 51.778 63.512,50.000 65.153,50.000 65.893 C 50.000 66.198,49.820 66.336,49.600 66.200 C 49.380 66.064,49.200 66.141,49.200 66.371 C 49.200 66.601,48.525 67.438,47.700 68.230 C 46.875 69.023,46.425 69.555,46.700 69.412 C 46.975 69.269,47.200 69.343,47.200 69.576 C 47.200 69.809,46.961 70.000,46.670 70.000 C 46.378 70.000,45.707 70.460,45.179 71.022 C 44.551 71.691,44.444 71.958,44.869 71.795 C 45.227 71.658,45.637 71.736,45.780 71.968 C 45.940 72.226,45.798 72.297,45.416 72.151 C 44.946 71.970,44.851 72.095,45.033 72.655 C 45.236 73.279,45.203 73.303,44.826 72.800 C 44.387 72.214,41.890 74.418,42.120 75.189 C 42.164 75.336,41.660 75.940,41.000 76.532 L 39.800 77.607 40.945 77.422 C 42.059 77.242,42.071 77.258,41.385 78.017 C 40.888 78.566,40.534 78.678,40.192 78.394 C 39.855 78.113,39.553 78.175,39.204 78.595 C 38.928 78.928,38.834 79.200,38.995 79.200 C 39.157 79.200,38.864 79.554,38.344 79.987 C 37.809 80.432,37.627 80.779,37.924 80.787 C 38.212 80.794,38.334 80.983,38.196 81.207 C 38.058 81.430,37.806 81.527,37.636 81.422 C 37.466 81.317,36.937 81.759,36.460 82.405 C 35.712 83.415,35.690 83.546,36.296 83.346 C 36.683 83.219,36.415 83.491,35.700 83.952 C 34.985 84.412,34.400 84.903,34.400 85.043 C 34.400 85.183,34.634 85.141,34.919 84.949 C 35.204 84.757,34.979 85.004,34.419 85.498 C 33.859 85.992,33.625 86.397,33.900 86.398 C 34.175 86.399,34.400 86.588,34.400 86.818 C 34.400 87.047,34.085 87.182,33.700 87.118 C 33.234 87.039,33.037 87.224,33.111 87.670 C 33.171 88.038,33.009 88.471,32.749 88.632 C 32.433 88.827,32.375 88.737,32.573 88.362 C 32.736 88.053,32.506 88.247,32.062 88.794 C 31.618 89.341,31.357 89.881,31.482 89.994 C 31.607 90.107,31.790 89.975,31.888 89.700 C 31.986 89.425,32.254 89.200,32.482 89.200 C 32.733 89.200,32.701 89.438,32.400 89.800 C 32.126 90.130,31.675 90.400,31.397 90.400 C 31.119 90.400,30.597 90.850,30.237 91.400 C 29.614 92.351,29.701 92.595,30.600 92.414 C 30.820 92.370,30.852 92.481,30.672 92.662 C 30.491 92.842,30.085 92.992,29.768 92.995 C 28.822 93.003,27.166 96.074,27.731 96.772 C 28.113 97.242,28.072 97.302,27.513 97.092 C 26.729 96.799,26.129 97.424,26.898 97.734 C 27.192 97.853,27.100 97.950,26.676 97.968 C 26.278 97.986,26.066 98.183,26.204 98.407 C 26.342 98.630,26.642 98.698,26.869 98.557 C 27.097 98.417,26.974 98.774,26.595 99.351 C 25.752 100.638,25.462 100.692,25.803 99.500 C 26.013 98.767,25.911 98.818,25.253 99.775 C 24.447 100.948,24.468 101.853,25.289 101.345 C 25.542 101.188,25.609 101.262,25.449 101.521 C 25.298 101.765,24.881 101.852,24.522 101.715 C 24.115 101.558,23.968 101.625,24.132 101.890 C 24.277 102.124,24.126 102.419,23.798 102.546 C 23.469 102.672,23.200 103.241,23.200 103.811 C 23.200 104.392,23.026 104.740,22.805 104.603 C 22.570 104.458,22.516 104.637,22.673 105.045 C 22.865 105.547,22.794 105.644,22.406 105.404 C 22.054 105.186,21.972 105.231,22.162 105.538 C 22.319 105.792,22.235 106.000,21.975 106.000 C 21.626 106.000,21.635 106.160,22.008 106.610 C 22.286 106.945,22.374 107.350,22.202 107.510 C 22.031 107.669,21.805 107.560,21.701 107.267 C 21.359 106.306,19.973 109.128,20.202 110.316 C 20.370 111.179,20.341 111.237,20.064 110.600 C 19.760 109.902,19.600 110.054,18.810 111.800 C 18.312 112.900,17.834 113.923,17.746 114.072 C 17.659 114.222,17.798 114.475,18.055 114.634 C 18.367 114.827,18.416 114.749,18.200 114.400 C 17.981 114.046,18.032 113.973,18.358 114.174 C 18.948 114.539,18.208 115.600,17.364 115.600 C 17.051 115.600,16.921 115.850,17.054 116.197 C 17.182 116.529,17.015 116.896,16.678 117.026 C 16.150 117.228,15.642 118.341,15.632 119.314 C 15.630 119.487,15.342 119.915,14.991 120.266 C 14.641 120.616,14.444 121.138,14.555 121.426 C 14.665 121.713,14.603 122.005,14.417 122.074 C 13.757 122.319,11.975 127.335,12.397 127.757 C 13.014 128.374,12.876 128.961,12.238 128.432 C 11.765 128.039,11.727 128.190,11.997 129.385 C 12.333 130.877,12.062 131.352,11.087 130.978 C 10.381 130.707,9.905 132.545,10.522 133.162 C 10.794 133.434,10.758 133.768,10.414 134.183 C 10.132 134.522,10.024 134.800,10.174 134.800 C 10.323 134.800,10.132 135.330,9.749 135.978 C 9.366 136.626,8.906 137.066,8.727 136.955 C 8.547 136.844,8.400 136.933,8.400 137.153 C 8.400 137.373,8.580 137.664,8.800 137.800 C 9.020 137.936,9.197 138.262,9.194 138.524 C 9.190 138.813,9.041 138.769,8.814 138.410 C 8.368 137.704,7.606 139.314,7.825 140.500 C 7.896 140.885,7.757 141.200,7.515 141.200 C 7.274 141.200,7.414 141.605,7.827 142.100 C 8.241 142.595,8.323 142.775,8.009 142.500 C 7.190 141.780,6.605 141.884,7.231 142.638 C 7.680 143.179,7.634 143.376,6.924 143.938 C 6.012 144.661,5.946 145.971,6.772 146.967 C 7.215 147.500,7.196 147.600,6.649 147.600 C 6.292 147.600,5.997 147.375,5.994 147.100 C 5.990 146.762,5.867 146.791,5.615 147.189 C 5.370 147.577,5.406 147.895,5.721 148.120 C 6.090 148.382,6.084 148.508,5.698 148.665 C 5.421 148.777,5.297 149.033,5.421 149.234 C 5.545 149.435,5.462 149.600,5.236 149.600 C 5.010 149.600,4.940 149.900,5.081 150.266 C 5.252 150.713,5.183 150.836,4.868 150.642 C 4.611 150.483,4.400 150.533,4.400 150.753 C 4.400 150.973,4.581 151.265,4.803 151.402 C 5.051 151.555,4.963 151.895,4.574 152.284 C 4.063 152.794,4.043 152.979,4.467 153.241 C 4.886 153.500,4.892 153.668,4.497 154.063 C 4.101 154.459,4.000 154.449,4.000 154.013 C 4.000 153.713,3.895 153.571,3.768 153.699 C 3.640 153.827,3.748 154.329,4.007 154.814 C 4.384 155.517,4.376 155.633,3.972 155.383 C 3.612 155.160,3.538 155.263,3.719 155.734 C 4.033 156.552,3.648 157.677,3.158 157.374 C 2.700 157.091,2.708 157.305,3.199 158.597 C 3.418 159.174,3.437 159.546,3.241 159.425 C 3.044 159.304,2.750 159.519,2.586 159.902 C 2.174 160.870,2.053 164.015,2.437 163.777 C 2.610 163.670,2.725 163.937,2.692 164.371 C 2.647 164.975,2.510 165.057,2.107 164.723 C 1.696 164.382,1.642 164.444,1.859 165.009 C 2.066 165.548,2.000 165.647,1.600 165.400 C 1.203 165.154,1.134 165.251,1.334 165.772 C 1.937 167.344,2.090 168.632,1.598 168.000 C 1.210 167.502,1.164 167.553,1.328 168.300 C 1.436 168.795,1.340 169.200,1.114 169.200 C 0.886 169.200,0.947 169.501,1.251 169.875 C 1.732 170.466,1.713 170.517,1.100 170.287 C 0.632 170.112,0.400 170.220,0.400 170.613 C 0.400 170.936,0.550 171.200,0.733 171.200 C 1.109 171.200,1.056 172.205,0.617 173.400 C -0.001 175.082,-0.009 175.289,0.550 175.074 C 0.944 174.923,1.050 175.087,0.908 175.630 C 0.797 176.053,0.513 176.400,0.277 176.400 C 0.041 176.400,0.196 176.657,0.624 176.971 C 1.347 177.504,1.352 177.561,0.700 177.814 C 0.315 177.963,0.000 178.317,0.000 178.600 C 0.000 178.883,0.315 179.237,0.700 179.386 C 1.367 179.644,1.367 179.682,0.700 180.173 C -0.096 180.759,-0.263 181.405,0.500 180.947 C 0.895 180.709,0.894 180.777,0.496 181.269 C -0.198 182.127,-0.159 217.909,0.537 218.777 C 0.890 219.217,0.887 219.286,0.524 219.068 C 0.214 218.882,0.070 219.064,0.109 219.591 C 0.143 220.036,0.357 220.403,0.585 220.406 C 0.813 220.409,0.730 220.587,0.400 220.800 C -0.133 221.145,-0.133 221.189,0.400 221.200 C 0.882 221.210,0.895 221.279,0.466 221.550 C 0.048 221.816,0.091 221.950,0.666 222.173 C 1.370 222.445,1.368 222.481,0.624 223.029 C 0.196 223.343,0.061 223.600,0.324 223.600 C 0.586 223.600,0.800 223.791,0.800 224.024 C 0.800 224.257,0.636 224.346,0.435 224.221 C -0.018 223.942,0.335 226.430,0.834 227.037 C 1.032 227.277,1.065 227.602,0.908 227.759 C 0.751 227.915,0.888 228.211,1.212 228.416 C 1.705 228.728,1.687 228.789,1.100 228.794 C 0.715 228.797,0.400 229.064,0.400 229.387 C 0.400 229.780,0.632 229.888,1.100 229.713 C 1.713 229.483,1.732 229.534,1.251 230.125 C 0.910 230.544,0.868 230.800,1.138 230.800 C 1.381 230.800,1.462 231.095,1.319 231.466 C 1.135 231.947,1.210 232.041,1.590 231.806 C 2.121 231.478,2.019 232.444,1.334 234.228 C 1.134 234.749,1.203 234.846,1.600 234.600 C 1.984 234.363,2.068 234.445,1.898 234.889 C 1.717 235.360,1.870 235.465,2.530 235.325 C 3.284 235.165,3.320 235.211,2.796 235.670 C 1.847 236.502,2.233 241.198,3.201 240.599 C 3.390 240.483,3.675 240.598,3.834 240.855 C 4.015 241.148,3.950 241.216,3.662 241.038 C 3.408 240.881,3.200 240.929,3.200 241.144 C 3.200 241.359,3.093 241.864,2.962 242.267 C 2.825 242.689,2.868 242.830,3.062 242.600 C 3.708 241.835,4.400 241.994,4.368 242.900 C 4.351 243.395,4.246 243.574,4.134 243.298 C 3.815 242.506,3.252 243.111,3.483 243.996 C 3.597 244.433,3.868 244.681,4.085 244.547 C 4.302 244.413,4.267 244.701,4.007 245.186 C 3.748 245.671,3.640 246.173,3.768 246.301 C 3.895 246.429,4.000 246.287,4.000 245.987 C 4.000 245.551,4.101 245.541,4.497 245.937 C 4.892 246.332,4.886 246.500,4.467 246.759 C 4.043 247.021,4.063 247.206,4.574 247.716 C 4.963 248.105,5.051 248.445,4.803 248.598 C 4.581 248.735,4.403 249.062,4.406 249.324 C 4.410 249.618,4.576 249.570,4.841 249.200 C 5.185 248.718,5.231 248.777,5.072 249.500 C 4.964 249.995,5.049 250.400,5.261 250.400 C 5.473 250.400,5.536 250.580,5.400 250.800 C 5.264 251.020,5.328 251.200,5.543 251.200 C 5.758 251.200,6.024 250.975,6.135 250.700 C 6.277 250.348,6.346 250.340,6.368 250.671 C 6.386 250.931,6.161 251.382,5.868 251.675 C 5.297 252.246,5.415 253.200,6.057 253.200 C 6.272 253.200,6.319 252.992,6.162 252.738 C 5.981 252.445,6.053 252.385,6.358 252.574 C 6.631 252.743,6.699 253.072,6.514 253.336 C 5.996 254.077,6.149 255.712,6.756 255.917 C 7.126 256.041,7.206 255.933,6.994 255.590 C 6.780 255.243,6.835 255.174,7.165 255.378 C 7.433 255.544,7.563 255.771,7.452 255.881 C 7.342 255.992,7.406 256.491,7.596 256.990 C 7.818 257.573,7.780 258.060,7.491 258.349 C 7.156 258.684,7.170 258.800,7.544 258.800 C 7.821 258.800,7.936 258.980,7.800 259.200 C 7.664 259.420,7.833 259.600,8.176 259.600 C 8.519 259.600,8.800 259.799,8.800 260.043 C 8.800 260.286,8.538 260.385,8.217 260.262 C 7.736 260.077,7.712 260.207,8.076 261.007 C 8.318 261.539,8.716 261.864,8.958 261.729 C 9.201 261.593,9.175 261.725,8.900 262.021 C 8.314 262.653,8.229 263.353,8.780 263.012 C 8.989 262.883,9.349 263.132,9.581 263.565 C 9.860 264.087,9.867 264.435,9.601 264.599 C 9.005 264.968,9.116 265.600,9.776 265.600 C 10.542 265.600,10.989 266.371,10.505 266.855 C 9.806 267.554,10.401 269.254,11.249 268.985 C 12.052 268.730,12.072 268.784,12.154 271.400 C 12.232 273.878,13.607 277.252,14.432 276.990 C 15.261 276.727,15.782 277.845,14.975 278.154 C 14.242 278.436,14.244 278.987,14.981 279.724 C 15.300 280.043,15.450 280.416,15.314 280.552 C 15.178 280.689,15.287 280.800,15.557 280.800 C 15.829 280.800,15.919 281.008,15.758 281.268 C 15.559 281.590,15.694 281.650,16.191 281.459 C 16.786 281.230,16.829 281.283,16.434 281.759 C 15.941 282.353,16.460 283.815,17.400 284.485 C 17.620 284.642,17.819 285.109,17.842 285.524 C 17.899 286.527,21.250 293.200,21.697 293.200 C 21.890 293.200,21.936 293.380,21.800 293.600 C 21.664 293.820,21.754 294.000,22.000 294.000 C 22.251 294.000,22.316 294.219,22.147 294.500 C 21.943 294.840,22.063 294.824,22.523 294.451 C 23.306 293.816,23.442 294.379,22.700 295.179 C 22.300 295.610,22.300 295.661,22.700 295.435 C 23.019 295.255,23.202 295.414,23.206 295.876 C 23.209 296.274,23.401 296.870,23.632 297.200 C 23.956 297.663,23.996 297.572,23.807 296.800 C 23.602 295.962,23.633 295.913,23.999 296.497 C 24.240 296.880,24.400 297.420,24.355 297.697 C 24.237 298.427,24.830 299.629,25.197 299.402 C 25.369 299.296,25.718 299.461,25.974 299.769 C 26.298 300.159,26.309 300.409,26.013 300.592 C 25.560 300.872,26.697 303.200,27.286 303.200 C 27.459 303.200,27.559 303.335,27.508 303.500 C 27.315 304.131,28.960 306.388,29.260 305.903 C 29.423 305.639,29.682 305.549,29.835 305.702 C 29.989 305.855,29.888 306.253,29.612 306.586 C 29.202 307.080,29.227 307.236,29.753 307.437 C 30.106 307.573,30.279 307.873,30.136 308.104 C 29.988 308.343,30.067 308.405,30.321 308.249 C 30.565 308.098,30.649 307.665,30.508 307.287 C 30.284 306.691,30.338 306.671,30.914 307.140 C 31.511 307.625,31.516 307.741,30.963 308.294 C 30.514 308.743,30.468 309.028,30.791 309.351 C 31.114 309.674,31.335 309.633,31.611 309.197 C 31.837 308.838,31.990 308.790,31.994 309.076 C 31.997 309.338,31.817 309.666,31.593 309.804 C 31.127 310.092,31.450 310.800,32.047 310.800 C 32.267 310.800,32.320 310.575,32.165 310.300 C 31.946 309.911,32.004 309.913,32.428 310.307 C 32.729 310.586,32.999 311.306,33.029 311.907 C 33.069 312.686,33.274 312.966,33.742 312.882 C 34.104 312.818,34.400 312.953,34.400 313.182 C 34.400 313.412,34.209 313.600,33.976 313.600 C 33.743 313.600,33.674 313.796,33.822 314.035 C 33.969 314.274,34.430 314.381,34.845 314.272 C 35.711 314.046,35.824 314.416,35.107 315.133 C 34.716 315.524,34.793 315.673,35.479 315.853 C 35.955 315.977,36.451 316.357,36.581 316.696 C 36.787 317.231,36.727 317.239,36.133 316.757 C 35.721 316.422,35.823 316.713,36.387 317.484 C 36.904 318.191,37.509 318.656,37.732 318.519 C 37.970 318.371,38.036 318.529,37.892 318.905 C 37.641 319.559,38.626 320.707,39.063 320.271 C 39.356 319.977,40.800 321.736,40.800 322.387 C 40.800 322.644,40.580 322.718,40.300 322.555 C 40.025 322.394,40.149 322.660,40.575 323.145 C 41.001 323.631,41.574 323.942,41.847 323.837 C 42.157 323.718,42.292 323.921,42.205 324.372 C 42.013 325.372,44.323 328.115,45.106 327.815 C 45.582 327.632,45.615 327.700,45.258 328.130 C 44.905 328.555,44.998 328.850,45.670 329.439 C 46.147 329.858,46.414 329.987,46.262 329.728 C 45.765 328.875,46.640 328.823,47.227 329.670 C 47.542 330.126,48.070 330.781,48.400 331.127 C 48.937 331.689,48.923 331.726,48.267 331.478 C 47.864 331.325,47.449 331.200,47.344 331.200 C 47.239 331.200,47.256 331.032,47.383 330.828 C 47.509 330.623,47.443 330.350,47.234 330.221 C 46.156 329.555,46.594 330.887,47.801 331.947 C 48.571 332.623,49.200 333.361,49.200 333.588 C 49.200 333.815,49.335 333.979,49.500 333.953 C 50.529 333.790,51.196 334.089,51.168 334.700 C 51.150 335.118,51.056 335.199,50.935 334.900 C 50.824 334.625,50.537 334.400,50.297 334.400 C 50.057 334.400,50.278 334.844,50.788 335.388 C 51.299 335.931,51.898 336.263,52.120 336.126 C 52.342 335.989,52.403 336.072,52.255 336.311 C 51.853 336.961,52.831 337.390,53.261 336.751 C 53.543 336.334,53.605 336.394,53.517 337.000 C 53.433 337.572,53.628 337.800,54.200 337.801 C 54.640 337.801,55.008 338.071,55.018 338.401 C 55.028 338.730,55.227 338.964,55.461 338.919 C 55.695 338.874,55.838 339.274,55.779 339.807 C 55.718 340.371,55.867 340.739,56.137 340.688 C 56.391 340.640,56.561 340.808,56.513 341.062 C 56.465 341.316,56.724 341.766,57.090 342.062 C 57.557 342.441,57.665 342.452,57.453 342.100 C 57.286 341.822,57.346 341.600,57.589 341.600 C 57.829 341.600,58.133 341.880,58.264 342.223 C 58.396 342.566,58.741 342.755,59.031 342.643 C 59.385 342.508,59.477 342.654,59.312 343.086 C 59.129 343.562,59.213 343.645,59.632 343.401 C 59.944 343.220,60.067 343.219,59.903 343.399 C 59.443 343.907,60.382 344.782,61.095 344.508 C 61.517 344.346,61.634 344.422,61.442 344.732 C 61.283 344.989,61.331 345.200,61.549 345.200 C 61.768 345.200,62.057 345.551,62.194 345.980 C 62.358 346.496,62.660 346.675,63.090 346.510 C 63.576 346.324,63.674 346.429,63.482 346.931 C 63.148 347.800,65.412 350.447,66.223 350.136 C 66.558 350.007,66.800 350.151,66.800 350.479 C 66.800 350.789,67.457 351.663,68.260 352.422 C 69.063 353.180,69.590 353.530,69.430 353.200 C 69.249 352.825,69.354 352.860,69.710 353.294 C 70.023 353.675,70.425 353.855,70.604 353.694 C 70.782 353.532,70.814 353.601,70.674 353.847 C 70.533 354.092,70.806 354.632,71.278 355.047 C 71.751 355.461,72.014 355.587,71.862 355.328 C 71.711 355.068,71.798 354.725,72.055 354.566 C 72.331 354.395,72.417 354.449,72.264 354.697 C 72.121 354.928,72.373 355.540,72.823 356.058 L 73.642 357.000 73.404 356.000 L 73.167 355.000 73.730 355.961 C 74.151 356.679,74.354 356.780,74.536 356.361 C 74.686 356.017,74.747 356.109,74.696 356.600 C 74.651 357.040,74.757 357.436,74.933 357.479 C 75.109 357.523,75.607 358.010,76.041 358.561 C 76.500 359.145,77.074 359.470,77.415 359.339 C 77.766 359.204,78.000 359.351,78.000 359.708 C 78.000 360.035,78.270 360.526,78.600 360.800 C 79.094 361.210,79.200 361.175,79.200 360.600 C 79.200 360.015,79.301 359.986,79.819 360.416 C 80.238 360.764,80.297 361.017,80.000 361.200 C 79.703 361.383,79.762 361.636,80.181 361.984 C 80.521 362.267,80.805 362.341,80.812 362.149 C 80.819 361.957,80.998 362.098,81.211 362.463 C 81.450 362.872,81.904 363.046,82.399 362.916 C 82.865 362.794,83.200 362.903,83.200 363.177 C 83.200 363.447,82.987 363.519,82.700 363.347 C 82.377 363.153,82.400 363.293,82.765 363.742 C 83.209 364.289,83.400 364.327,83.659 363.919 C 83.906 363.529,83.989 363.568,83.994 364.076 C 83.997 364.448,84.208 364.881,84.462 365.038 C 84.765 365.226,84.824 365.131,84.632 364.762 C 84.472 364.453,84.730 364.696,85.205 365.302 C 85.699 365.932,86.266 366.283,86.528 366.121 C 87.366 365.603,88.386 365.726,88.591 366.371 C 88.702 366.721,89.199 367.186,89.696 367.404 C 90.201 367.625,90.600 368.153,90.600 368.600 C 90.600 369.130,90.829 369.362,91.279 369.287 C 91.653 369.225,92.160 369.552,92.407 370.013 C 92.751 370.657,92.981 370.748,93.392 370.406 C 93.789 370.077,94.006 370.087,94.226 370.442 C 94.415 370.747,94.355 370.819,94.062 370.638 C 93.808 370.481,93.600 370.533,93.600 370.753 C 93.600 371.515,94.353 371.614,94.785 370.908 C 95.109 370.381,95.205 370.353,95.163 370.800 C 95.054 371.932,95.200 372.447,95.566 372.221 C 95.767 372.097,96.023 372.221,96.134 372.498 C 96.262 372.816,96.348 372.757,96.368 372.337 C 96.391 371.858,96.641 371.738,97.272 371.903 C 98.515 372.228,99.976 373.598,99.739 374.215 C 99.523 374.777,100.927 375.740,101.347 375.319 C 101.486 375.180,101.600 375.299,101.600 375.582 C 101.600 375.990,101.742 375.983,102.277 375.549 C 102.853 375.082,102.903 375.083,102.616 375.561 C 102.006 376.572,103.578 377.340,104.530 376.497 C 105.295 375.819,105.303 375.826,104.818 376.748 C 104.500 377.353,104.479 377.598,104.760 377.425 C 105.002 377.275,105.200 377.365,105.200 377.625 C 105.200 377.974,105.359 377.966,105.809 377.592 C 106.326 377.164,106.378 377.202,106.150 377.843 C 105.931 378.463,105.980 378.510,106.421 378.100 C 106.718 377.825,107.149 377.603,107.380 377.606 C 107.611 377.609,107.552 377.769,107.249 377.961 C 106.946 378.153,106.821 378.511,106.972 378.755 C 107.351 379.369,108.105 379.319,107.805 378.700 C 107.672 378.425,107.863 378.605,108.230 379.100 C 108.597 379.595,109.092 380.000,109.329 380.000 C 109.610 380.000,109.593 379.833,109.280 379.520 C 109.016 379.256,108.801 378.851,108.803 378.620 C 108.804 378.389,109.140 378.707,109.548 379.327 C 109.957 379.947,111.156 380.892,112.213 381.427 C 114.492 382.580,114.671 382.612,113.949 381.730 C 113.471 381.147,113.543 381.153,114.500 381.776 C 115.105 382.170,115.600 382.673,115.600 382.895 C 115.600 383.121,115.868 383.076,116.209 382.792 C 116.723 382.366,116.776 382.397,116.549 382.990 C 116.315 383.598,116.392 383.632,117.115 383.245 C 117.738 382.912,118.025 382.916,118.238 383.261 C 118.409 383.537,118.349 383.616,118.089 383.455 C 117.851 383.308,117.553 383.352,117.428 383.555 C 117.174 383.966,119.399 384.867,119.766 384.501 C 119.895 384.372,120.000 384.471,120.000 384.721 C 120.000 384.980,120.286 385.065,120.666 384.919 C 121.113 384.748,121.236 384.817,121.042 385.132 C 120.883 385.389,120.934 385.600,121.157 385.600 C 121.379 385.600,121.707 385.337,121.887 385.017 C 122.321 384.240,124.224 385.144,124.150 386.092 C 124.117 386.517,124.309 386.656,124.715 386.500 C 125.092 386.356,125.229 386.430,125.068 386.690 C 124.923 386.924,125.085 387.224,125.428 387.356 C 125.915 387.542,125.993 387.409,125.783 386.747 C 125.602 386.177,125.659 385.989,125.957 386.174 C 126.201 386.324,126.400 386.700,126.400 387.010 C 126.400 387.878,127.978 388.591,128.543 387.978 C 128.886 387.607,128.886 387.547,128.542 387.739 C 128.290 387.880,127.979 387.722,127.851 387.388 C 127.659 386.888,127.762 386.859,128.440 387.221 C 128.937 387.487,129.170 387.900,129.031 388.264 C 128.886 388.641,128.987 388.798,129.300 388.683 C 129.575 388.583,129.751 388.284,129.690 388.020 C 129.630 387.756,129.757 387.650,129.973 387.783 C 130.188 387.916,130.252 388.319,130.115 388.678 C 129.947 389.115,130.019 389.235,130.332 389.042 C 130.589 388.883,130.800 388.964,130.800 389.223 C 130.800 389.496,131.135 389.606,131.600 389.484 C 132.040 389.369,132.400 389.449,132.400 389.661 C 132.400 389.873,132.583 389.934,132.807 389.796 C 133.030 389.658,133.098 389.359,132.958 389.132 C 132.790 388.860,132.974 388.865,133.499 389.146 C 133.937 389.380,134.396 389.470,134.520 389.346 C 134.644 389.222,134.647 389.499,134.526 389.960 C 134.304 390.811,134.946 391.134,135.400 390.400 C 135.536 390.180,135.839 390.000,136.073 390.000 C 136.324 390.000,136.274 390.276,135.949 390.675 C 135.470 391.263,135.486 391.317,136.074 391.097 C 136.447 390.958,136.820 391.058,136.909 391.322 C 137.026 391.670,137.273 391.636,137.812 391.200 C 138.220 390.870,138.424 390.816,138.266 391.080 C 138.097 391.361,138.303 391.734,138.763 391.980 C 139.733 392.499,140.119 392.517,139.817 392.028 C 139.305 391.200,140.390 391.251,140.973 392.082 C 141.528 392.875,141.790 392.804,141.647 391.900 C 141.621 391.735,141.870 391.600,142.200 391.600 C 142.931 391.600,142.970 392.057,142.300 392.779 C 141.925 393.183,141.922 393.249,142.289 393.042 C 142.557 392.891,143.233 393.066,143.791 393.431 C 144.622 393.975,144.915 394.003,145.419 393.584 C 145.918 393.170,146.125 393.172,146.517 393.596 C 146.902 394.011,146.878 394.053,146.400 393.800 C 145.904 393.538,145.889 393.579,146.317 394.038 C 146.757 394.511,146.889 394.505,147.211 393.997 C 147.542 393.472,147.588 393.474,147.594 394.014 C 147.597 394.352,147.915 394.640,148.300 394.653 C 149.378 394.692,150.170 394.960,150.500 395.400 C 150.700 395.667,150.900 395.667,151.100 395.400 C 151.474 394.901,152.540 394.651,152.242 395.132 C 152.123 395.325,152.478 395.689,153.031 395.942 C 154.259 396.501,154.520 396.517,154.209 396.014 C 154.078 395.802,154.607 395.894,155.385 396.220 C 156.176 396.550,156.800 396.638,156.800 396.418 C 156.800 396.202,157.085 396.135,157.434 396.268 C 157.949 396.466,157.967 396.583,157.534 396.893 C 157.141 397.174,157.194 397.212,157.733 397.038 C 158.136 396.907,158.641 396.800,158.856 396.800 C 159.071 396.800,159.119 396.592,158.962 396.338 C 158.784 396.050,158.852 395.985,159.145 396.166 C 159.402 396.325,159.522 396.602,159.412 396.781 C 159.157 397.193,161.531 398.203,161.895 397.838 C 162.044 397.690,161.770 397.465,161.287 397.339 C 160.804 397.212,160.513 396.941,160.640 396.735 C 160.775 396.517,161.119 396.567,161.466 396.855 C 161.943 397.251,162.133 397.235,162.424 396.774 C 162.677 396.376,162.790 396.353,162.794 396.700 C 162.797 396.975,163.115 397.203,163.500 397.206 C 164.098 397.211,164.113 397.269,163.600 397.600 C 163.031 397.968,163.777 398.225,164.900 398.047 C 165.065 398.021,165.200 398.180,165.200 398.400 C 165.200 398.620,165.490 398.800,165.844 398.800 C 166.332 398.800,166.260 398.615,165.545 398.036 L 164.602 397.272 165.663 397.336 C 166.246 397.371,166.643 397.530,166.545 397.688 C 166.448 397.846,167.027 398.251,167.833 398.588 C 169.497 399.283,170.142 399.375,169.100 398.768 C 168.715 398.544,168.403 398.144,168.406 397.880 C 168.410 397.564,168.533 397.590,168.766 397.958 C 168.960 398.265,169.394 398.411,169.730 398.282 C 170.067 398.153,170.580 398.352,170.871 398.724 C 171.346 399.331,171.329 399.344,170.700 398.851 C 170.095 398.377,170.000 398.390,170.000 398.951 C 170.000 399.623,170.672 399.778,171.765 399.358 C 172.112 399.225,172.296 398.955,172.174 398.758 C 171.796 398.146,172.487 398.366,172.956 399.007 C 173.450 399.681,176.000 400.154,176.000 399.571 C 176.000 399.367,176.191 399.200,176.424 399.200 C 176.657 399.200,176.755 399.350,176.641 399.533 C 176.528 399.717,176.689 399.867,177.000 399.867 C 177.311 399.867,177.480 399.729,177.376 399.561 C 177.272 399.393,177.370 399.142,177.593 399.004 C 177.817 398.866,178.003 399.078,178.006 399.476 C 178.011 400.090,178.071 400.109,178.400 399.600 C 178.745 399.067,178.789 399.067,178.800 399.600 C 178.811 400.133,178.855 400.133,179.200 399.600 C 179.473 399.178,179.590 399.153,179.594 399.514 C 179.598 399.899,179.795 399.924,180.376 399.613 C 180.867 399.350,181.239 399.339,181.390 399.583 C 181.873 400.366,218.309 400.075,218.819 399.284 C 219.142 398.784,219.211 398.765,219.076 399.214 C 218.955 399.615,219.153 399.829,219.645 399.829 C 220.060 399.829,220.403 399.642,220.406 399.414 C 220.409 399.186,220.587 399.270,220.800 399.600 C 221.145 400.133,221.189 400.133,221.200 399.600 C 221.211 399.067,221.255 399.067,221.600 399.600 C 221.929 400.109,221.989 400.090,221.994 399.476 C 221.997 399.078,222.183 398.866,222.407 399.004 C 222.630 399.142,222.728 399.393,222.624 399.561 C 222.520 399.729,222.689 399.867,223.000 399.867 C 223.311 399.867,223.472 399.717,223.359 399.533 C 223.245 399.350,223.343 399.200,223.576 399.200 C 223.809 399.200,224.000 399.355,224.000 399.545 C 224.000 399.735,224.405 399.848,224.900 399.796 C 225.395 399.745,226.036 399.679,226.324 399.651 C 226.612 399.623,226.743 399.432,226.616 399.226 C 226.472 398.993,226.879 398.993,227.690 399.226 C 229.525 399.752,230.000 399.695,230.000 398.951 C 230.000 398.390,229.905 398.377,229.300 398.851 C 228.675 399.341,228.655 399.329,229.115 398.741 C 229.425 398.344,229.954 398.168,230.449 398.297 C 231.090 398.465,231.152 398.594,230.734 398.893 C 230.341 399.174,230.394 399.213,230.933 399.038 C 231.336 398.907,231.876 398.797,232.133 398.794 C 232.409 398.790,232.354 398.613,232.000 398.362 C 231.535 398.031,231.640 397.987,232.467 398.167 C 233.135 398.312,233.609 398.212,233.735 397.899 C 233.855 397.602,233.950 397.683,233.968 398.100 C 233.986 398.485,234.191 398.800,234.424 398.800 C 234.657 398.800,234.765 398.665,234.666 398.500 C 234.566 398.335,234.726 397.977,235.021 397.704 C 235.359 397.392,235.648 397.355,235.802 397.604 C 235.937 397.822,235.827 398.000,235.557 398.000 C 235.287 398.000,235.154 398.087,235.260 398.193 C 235.632 398.566,238.014 397.413,237.835 396.947 C 237.706 396.612,237.949 396.629,238.677 397.006 C 239.731 397.553,240.966 397.392,240.575 396.759 C 240.454 396.563,240.840 396.587,241.433 396.812 C 242.026 397.038,242.606 397.127,242.722 397.011 C 242.838 396.895,242.678 396.797,242.367 396.794 C 241.894 396.789,241.897 396.726,242.389 396.415 C 242.751 396.186,243.067 396.186,243.208 396.413 C 243.334 396.617,244.329 396.328,245.419 395.772 C 247.090 394.918,247.252 394.888,246.456 395.580 C 245.385 396.510,245.517 396.603,246.969 395.942 C 247.522 395.689,247.880 395.329,247.764 395.142 C 247.648 394.954,247.833 394.800,248.176 394.800 C 248.519 394.800,248.800 394.980,248.800 395.200 C 248.800 395.420,248.991 395.600,249.224 395.600 C 249.457 395.600,249.543 395.431,249.415 395.224 C 249.287 395.018,249.502 394.836,249.891 394.820 C 251.978 394.736,252.400 394.588,252.400 393.939 C 252.400 393.197,253.810 393.048,254.674 393.699 C 255.225 394.113,256.800 393.401,256.800 392.737 C 256.800 392.452,257.007 392.473,257.400 392.800 C 257.847 393.171,258.000 393.178,258.000 392.825 C 258.000 392.565,258.165 392.455,258.366 392.579 C 258.567 392.703,258.802 392.595,258.888 392.337 C 258.973 392.080,259.349 391.825,259.724 391.770 C 260.098 391.715,260.302 391.834,260.178 392.035 C 259.880 392.517,260.272 392.497,261.237 391.980 C 261.680 391.743,261.905 391.350,261.753 391.080 C 261.561 390.739,261.639 390.745,262.021 391.100 C 262.734 391.762,263.227 391.736,262.964 391.052 C 262.672 390.290,263.968 389.876,264.716 390.493 C 265.183 390.879,265.369 390.886,265.491 390.522 C 265.579 390.260,265.940 390.155,266.291 390.290 C 266.668 390.435,266.829 390.371,266.683 390.135 C 266.537 389.899,266.954 389.733,267.695 389.733 C 268.388 389.733,269.026 389.522,269.112 389.264 C 269.198 389.006,269.452 388.909,269.677 389.048 C 269.935 389.207,269.986 388.986,269.816 388.450 C 269.510 387.485,269.574 387.458,270.932 387.974 C 271.984 388.374,277.634 386.499,277.914 385.657 C 277.990 385.430,278.355 385.359,278.726 385.497 C 279.314 385.717,279.330 385.663,278.851 385.075 C 278.526 384.676,278.476 384.400,278.727 384.400 C 278.961 384.400,279.271 384.591,279.415 384.824 C 279.581 385.093,279.893 384.984,280.268 384.524 C 280.593 384.126,280.745 384.025,280.606 384.300 C 280.295 384.914,280.489 384.924,281.733 384.358 C 282.406 384.051,282.642 383.684,282.505 383.158 C 282.385 382.701,282.524 382.376,282.853 382.339 C 283.154 382.306,283.580 382.256,283.800 382.229 C 284.020 382.201,284.425 382.038,284.700 381.866 C 284.975 381.694,285.200 381.675,285.200 381.825 C 285.200 381.975,285.515 381.851,285.900 381.549 C 286.534 381.051,286.549 381.066,286.051 381.700 C 285.749 382.085,285.579 382.400,285.672 382.400 C 286.387 382.400,293.170 378.654,293.362 378.154 C 293.502 377.791,293.864 377.616,294.203 377.746 C 294.532 377.872,294.800 377.771,294.800 377.521 C 294.800 377.271,294.913 377.179,295.051 377.317 C 295.381 377.648,297.600 376.492,297.600 375.990 C 297.600 375.775,297.390 375.600,297.133 375.600 C 296.877 375.600,296.782 375.484,296.924 375.343 C 297.065 375.202,297.459 375.317,297.799 375.600 C 298.314 376.027,298.380 376.013,298.191 375.521 C 298.066 375.195,298.287 374.674,298.682 374.364 C 299.321 373.862,299.346 373.870,298.903 374.437 C 298.630 374.787,298.519 375.186,298.656 375.323 C 298.990 375.656,300.400 374.880,300.400 374.362 C 300.400 374.137,300.192 374.081,299.938 374.238 C 299.645 374.419,299.585 374.347,299.774 374.042 C 300.002 373.674,300.203 373.671,300.636 374.030 C 301.072 374.392,301.200 374.381,301.200 373.982 C 301.200 373.699,301.314 373.580,301.453 373.719 C 301.866 374.132,303.279 373.182,303.068 372.633 C 302.961 372.355,303.054 371.874,303.275 371.564 C 303.594 371.114,303.631 371.139,303.455 371.687 C 303.334 372.065,303.407 372.481,303.617 372.611 C 303.828 372.741,304.000 372.646,304.000 372.400 C 304.000 372.154,304.181 372.065,304.403 372.202 C 304.624 372.339,304.913 372.170,305.045 371.828 C 305.176 371.485,305.476 371.323,305.710 371.468 C 305.977 371.633,306.041 371.483,305.881 371.066 C 305.711 370.624,305.831 370.400,306.236 370.400 C 306.596 370.400,306.730 370.590,306.562 370.862 C 306.389 371.141,306.452 371.215,306.721 371.049 C 306.965 370.898,307.049 370.465,306.908 370.087 C 306.688 369.501,306.744 369.476,307.289 369.919 C 307.782 370.320,307.997 370.329,308.226 369.958 C 308.427 369.632,308.354 369.581,308.000 369.800 C 307.643 370.021,307.573 369.968,307.779 369.635 C 307.945 369.366,308.328 369.240,308.630 369.356 C 308.932 369.472,309.319 369.317,309.489 369.012 C 309.660 368.707,309.976 368.458,310.190 368.458 C 310.405 368.459,310.653 368.241,310.742 367.974 C 310.835 367.696,310.711 367.608,310.452 367.768 C 310.203 367.922,310.000 367.953,310.000 367.838 C 310.000 367.722,310.387 367.421,310.861 367.168 C 311.600 366.772,311.685 366.801,311.465 367.374 C 311.315 367.767,311.372 367.941,311.605 367.797 C 311.822 367.663,312.003 367.248,312.006 366.876 C 312.011 366.306,312.070 366.292,312.383 366.786 C 312.681 367.257,312.836 367.159,313.167 366.286 C 313.615 365.109,314.242 364.749,313.842 365.900 C 313.639 366.484,313.698 366.471,314.199 365.824 C 314.670 365.216,314.691 364.978,314.300 364.730 C 314.025 364.555,313.989 364.409,314.220 364.406 C 314.451 364.403,314.850 364.610,315.107 364.867 C 315.463 365.223,315.634 365.176,315.829 364.669 C 315.969 364.304,316.210 364.083,316.365 364.178 C 316.520 364.274,317.176 363.900,317.823 363.347 C 318.470 362.794,318.775 362.456,318.500 362.595 C 318.203 362.744,318.000 362.588,318.000 362.210 C 318.000 361.713,318.164 361.660,318.739 361.967 C 319.525 362.388,320.400 361.862,320.400 360.969 C 320.400 360.710,320.715 360.260,321.100 359.968 C 321.696 359.518,321.725 359.522,321.300 359.999 C 320.598 360.786,320.675 361.402,321.400 360.800 C 321.730 360.526,322.000 360.035,322.000 359.708 C 322.000 359.368,322.235 359.205,322.551 359.326 C 323.254 359.595,324.000 358.859,324.000 357.896 C 324.000 357.487,324.183 357.266,324.407 357.404 C 324.630 357.542,324.692 357.851,324.545 358.089 C 324.377 358.361,324.464 358.407,324.778 358.214 C 325.053 358.043,325.541 357.341,325.861 356.652 C 326.340 355.623,326.408 355.578,326.242 356.400 L 326.040 357.400 326.979 356.326 C 327.495 355.735,327.996 355.329,328.091 355.424 C 328.186 355.519,328.695 355.138,329.222 354.576 C 330.064 353.680,330.085 353.592,329.391 353.853 C 328.718 354.105,328.674 354.058,329.097 353.538 C 329.370 353.202,329.497 352.831,329.381 352.714 C 329.264 352.597,329.505 352.413,329.917 352.306 C 330.370 352.187,330.667 352.319,330.667 352.637 C 330.667 352.927,330.489 353.055,330.272 352.921 C 330.041 352.778,330.004 352.883,330.183 353.173 C 330.581 353.816,332.916 351.605,333.795 349.753 C 334.140 349.028,334.642 348.302,334.911 348.140 C 335.236 347.945,335.219 348.069,334.862 348.510 C 333.911 349.683,334.580 350.087,335.608 348.959 C 336.154 348.361,336.330 348.003,336.000 348.165 C 335.639 348.342,335.679 348.231,336.100 347.886 C 336.485 347.570,336.800 347.127,336.800 346.902 C 336.800 346.676,337.295 346.168,337.900 345.773 C 338.505 345.377,339.240 344.815,339.532 344.523 C 339.825 344.231,340.234 344.098,340.442 344.226 C 340.650 344.354,340.770 344.229,340.710 343.948 C 340.649 343.667,340.870 343.420,341.200 343.400 C 341.530 343.380,341.749 343.128,341.686 342.840 C 341.553 342.231,342.315 341.200,342.898 341.200 C 343.118 341.200,343.051 341.515,342.749 341.900 C 342.254 342.532,342.267 342.547,342.887 342.062 C 343.265 341.766,343.535 341.316,343.487 341.062 C 343.439 340.808,343.670 340.648,344.000 340.706 C 344.412 340.778,344.350 340.605,343.800 340.152 C 343.329 339.764,343.248 339.576,343.602 339.696 C 343.933 339.808,344.435 339.652,344.718 339.350 C 345.000 339.047,345.089 338.794,344.916 338.787 C 344.742 338.780,344.933 338.522,345.340 338.214 C 345.774 337.885,345.955 337.451,345.778 337.165 C 345.585 336.853,345.643 336.779,345.938 336.962 C 346.192 337.119,346.400 337.057,346.400 336.824 C 346.400 336.591,346.599 336.400,346.843 336.400 C 347.099 336.400,347.174 336.695,347.019 337.100 C 346.873 337.485,347.474 337.097,348.356 336.239 C 349.238 335.380,349.923 334.480,349.880 334.239 C 349.836 333.997,350.055 333.855,350.368 333.923 C 350.840 334.025,350.848 333.939,350.411 333.413 C 349.974 332.886,349.981 332.818,350.456 333.000 C 350.788 333.127,351.604 332.605,352.413 331.749 C 353.176 330.941,353.594 330.396,353.342 330.538 C 352.879 330.798,352.203 329.663,352.591 329.276 C 352.706 329.161,352.800 329.277,352.800 329.533 C 352.800 330.240,353.793 330.092,354.533 329.275 C 355.054 328.698,355.087 328.447,354.695 328.051 C 354.301 327.654,354.335 327.604,354.861 327.804 C 355.486 328.042,357.827 325.735,357.520 325.184 C 357.454 325.065,358.030 324.374,358.800 323.650 C 359.570 322.925,359.975 322.448,359.700 322.590 C 359.378 322.755,359.200 322.553,359.200 322.024 C 359.200 321.571,359.391 321.200,359.624 321.200 C 359.857 321.200,359.936 321.020,359.800 320.800 C 359.660 320.574,359.988 320.400,360.553 320.400 C 361.692 320.400,362.229 319.764,362.072 318.600 C 361.998 318.051,362.072 317.957,362.306 318.301 C 362.556 318.666,362.900 318.461,363.578 317.544 C 364.090 316.852,364.304 316.412,364.054 316.567 C 363.804 316.721,363.600 316.657,363.600 316.424 C 363.600 316.191,363.848 316.000,364.151 316.000 C 365.005 316.000,365.753 314.942,365.158 314.574 C 364.863 314.392,364.781 314.445,364.945 314.711 C 365.092 314.949,365.046 315.248,364.842 315.374 C 364.184 315.781,364.594 314.637,365.586 313.300 C 366.116 312.585,366.776 312.000,367.052 312.000 C 367.327 312.000,367.663 311.822,367.797 311.605 C 367.941 311.372,367.767 311.315,367.374 311.465 C 366.784 311.692,366.766 311.610,367.220 310.762 C 367.532 310.180,367.800 309.999,367.901 310.304 C 367.993 310.579,368.242 310.698,368.454 310.567 C 368.689 310.421,368.652 310.103,368.356 309.747 C 367.980 309.293,367.980 309.060,368.361 308.683 C 368.742 308.305,368.790 308.352,368.581 308.900 C 368.222 309.843,369.064 309.802,369.572 308.853 C 370.052 307.956,369.765 307.568,368.861 307.891 C 368.497 308.021,368.329 307.984,368.487 307.810 C 368.645 307.635,369.185 307.464,369.687 307.430 C 370.189 307.396,370.555 307.150,370.500 306.884 C 370.445 306.618,370.580 306.400,370.800 306.400 C 371.020 306.400,371.200 306.209,371.200 305.976 C 371.200 305.743,371.022 305.663,370.805 305.797 C 370.573 305.940,370.514 305.770,370.660 305.387 C 370.832 304.940,371.001 304.878,371.194 305.190 C 371.379 305.489,371.709 305.293,372.148 304.624 C 372.517 304.061,372.679 303.597,372.509 303.594 C 372.339 303.591,372.384 303.456,372.609 303.294 C 373.423 302.710,374.391 300.841,374.004 300.602 C 373.763 300.453,373.797 300.074,374.094 299.597 C 374.357 299.176,374.675 298.998,374.800 299.200 C 374.925 299.402,375.260 299.196,375.543 298.742 C 375.968 298.062,375.966 297.969,375.530 298.217 C 375.238 298.382,375.405 298.124,375.900 297.643 C 376.841 296.729,377.104 295.600,376.376 295.600 C 376.143 295.600,376.069 295.411,376.212 295.181 C 376.386 294.899,376.678 294.932,377.101 295.281 C 377.659 295.740,377.677 295.700,377.265 294.926 C 376.603 293.683,376.690 293.311,377.430 294.224 C 377.776 294.651,377.945 294.775,377.806 294.500 C 377.667 294.225,377.754 294.000,378.000 294.000 C 378.246 294.000,378.336 293.820,378.200 293.600 C 378.064 293.380,378.154 293.200,378.400 293.200 C 378.646 293.200,378.745 293.035,378.621 292.834 C 378.497 292.633,378.554 292.408,378.748 292.334 C 379.168 292.174,381.716 287.200,381.377 287.200 C 381.248 287.200,381.437 286.906,381.797 286.546 C 382.260 286.083,382.327 285.767,382.026 285.466 C 381.367 284.807,381.519 284.400,382.424 284.400 C 382.982 284.400,383.147 284.239,382.935 283.900 C 382.415 283.068,382.447 282.459,383.034 281.972 C 383.340 281.718,383.493 281.350,383.372 281.155 C 383.251 280.960,383.343 280.800,383.576 280.800 C 384.124 280.800,384.118 281.322,383.565 281.875 C 383.288 282.152,383.272 282.398,383.522 282.552 C 383.881 282.773,384.620 281.007,384.466 280.300 C 384.430 280.135,384.561 280.000,384.757 280.000 C 385.355 280.000,385.642 278.733,385.172 278.167 C 384.623 277.505,385.085 276.670,385.840 276.960 C 386.526 277.223,386.571 276.731,385.920 276.080 C 385.547 275.707,385.560 275.489,385.979 275.100 C 386.419 274.692,386.472 274.729,386.271 275.300 C 385.750 276.783,386.713 275.913,387.329 274.345 C 387.968 272.717,387.900 271.767,387.177 272.214 C 386.975 272.339,386.918 272.158,387.051 271.811 C 387.231 271.342,387.428 271.291,387.815 271.613 C 388.222 271.951,388.290 271.866,388.124 271.229 C 387.808 270.022,388.355 268.080,388.806 268.809 C 389.242 269.515,389.482 269.289,389.661 268.000 C 389.737 267.450,389.980 266.862,390.200 266.693 C 390.447 266.503,390.333 266.228,389.900 265.973 C 389.515 265.746,389.200 265.367,389.200 265.131 C 389.200 264.844,389.387 264.857,389.764 265.170 C 390.153 265.493,390.410 265.507,390.590 265.217 C 390.733 264.984,390.570 264.687,390.228 264.555 C 389.518 264.283,389.770 263.574,390.513 263.752 C 390.781 263.816,390.865 263.793,390.700 263.701 C 390.134 263.385,390.400 262.714,391.000 262.945 C 391.795 263.250,391.758 262.850,390.900 261.838 C 390.222 261.040,390.225 261.033,390.975 261.607 C 391.680 262.147,391.725 262.135,391.479 261.479 C 391.331 261.083,391.368 260.857,391.563 260.977 C 391.757 261.097,392.017 260.932,392.141 260.611 C 392.264 260.289,392.217 259.934,392.037 259.823 C 391.856 259.711,391.751 259.210,391.803 258.710 C 391.855 258.209,391.921 257.541,391.949 257.224 C 391.988 256.786,392.129 256.824,392.537 257.382 C 393.048 258.081,393.072 258.075,393.012 257.267 C 392.978 256.799,392.826 256.293,392.675 256.141 C 392.524 255.990,392.415 255.402,392.432 254.833 L 392.465 253.800 392.972 254.947 C 393.363 255.833,393.534 255.950,393.722 255.460 C 393.856 255.111,393.793 254.719,393.583 254.589 C 392.807 254.110,393.152 252.400,394.024 252.400 C 394.477 252.400,394.739 252.225,394.607 252.012 C 394.475 251.798,394.656 251.065,395.009 250.383 C 395.654 249.135,395.220 247.693,394.359 248.225 C 394.167 248.344,394.116 248.162,394.247 247.821 C 394.378 247.479,394.657 247.200,394.866 247.200 C 395.076 247.200,395.136 247.380,395.000 247.600 C 394.864 247.820,394.915 248.000,395.112 248.000 C 395.436 248.000,396.400 246.302,396.400 245.732 C 396.400 245.606,396.108 245.744,395.751 246.040 C 395.265 246.444,395.316 246.181,395.954 244.990 C 396.422 244.117,396.634 243.345,396.425 243.275 C 396.216 243.205,396.150 242.875,396.278 242.541 C 396.468 242.045,396.579 242.031,396.882 242.466 C 397.228 242.965,397.139 242.471,396.507 240.400 C 396.368 239.944,396.413 239.923,396.693 240.311 C 397.175 240.981,398.122 239.014,397.802 238.007 C 397.680 237.621,397.760 236.832,397.980 236.253 C 398.237 235.576,398.241 235.200,397.990 235.200 C 397.776 235.200,397.600 235.001,397.600 234.757 C 397.600 234.514,397.870 234.418,398.200 234.545 C 398.840 234.790,398.949 234.453,398.558 233.435 C 398.425 233.088,398.110 232.925,397.858 233.071 C 397.606 233.218,397.720 232.972,398.111 232.525 C 398.643 231.917,398.733 231.470,398.469 230.756 C 398.071 229.682,398.258 228.800,398.882 228.800 C 399.133 228.800,399.101 229.038,398.800 229.400 C 398.392 229.891,398.420 230.000,398.951 230.000 C 399.695 230.000,399.752 229.525,399.226 227.690 C 399.020 226.972,398.999 226.476,399.180 226.588 C 399.675 226.893,399.989 224.673,399.530 224.118 C 399.310 223.852,399.279 223.403,399.459 223.118 C 399.926 222.382,399.901 221.052,399.413 220.706 C 399.150 220.519,399.186 220.410,399.514 220.406 C 399.899 220.402,399.924 220.205,399.613 219.624 C 399.320 219.077,399.329 218.768,399.642 218.574 C 399.953 218.382,399.923 218.186,399.543 217.920 C 399.138 217.636,399.122 217.489,399.481 217.342 C 400.096 217.091,400.202 181.772,399.588 181.393 C 399.337 181.237,399.345 180.876,399.613 180.376 C 399.924 179.795,399.899 179.598,399.514 179.594 C 399.153 179.590,399.178 179.473,399.600 179.200 C 400.133 178.855,400.133 178.811,399.600 178.800 C 399.067 178.789,399.067 178.745,399.600 178.400 C 400.109 178.071,400.090 178.011,399.476 178.006 C 399.078 178.003,398.866 177.817,399.004 177.593 C 399.142 177.370,399.393 177.272,399.561 177.376 C 399.729 177.480,399.867 177.311,399.867 177.000 C 399.867 176.689,399.729 176.520,399.561 176.624 C 399.393 176.728,399.142 176.630,399.004 176.407 C 398.866 176.183,399.054 176.000,399.423 176.000 C 399.923 176.000,400.032 175.771,399.852 175.100 C 399.719 174.605,399.608 173.964,399.605 173.676 C 399.602 173.388,399.432 173.257,399.226 173.384 C 398.993 173.528,398.993 173.121,399.226 172.310 C 399.752 170.475,399.695 170.000,398.951 170.000 C 398.390 170.000,398.377 170.095,398.851 170.700 C 399.345 171.330,399.332 171.347,398.722 170.869 C 398.187 170.451,398.126 170.121,398.433 169.313 C 398.738 168.511,398.668 168.112,398.111 167.475 C 397.720 167.028,397.606 166.782,397.858 166.929 C 398.110 167.075,398.425 166.912,398.558 166.565 C 398.949 165.547,398.840 165.210,398.200 165.455 C 397.870 165.582,397.600 165.486,397.600 165.243 C 397.600 164.999,397.776 164.800,397.990 164.800 C 398.241 164.800,398.237 164.424,397.980 163.747 C 397.760 163.168,397.680 162.379,397.802 161.993 C 398.059 161.183,397.236 159.131,396.769 159.419 C 396.597 159.526,396.325 159.402,396.166 159.145 C 395.985 158.852,396.050 158.784,396.338 158.962 C 396.592 159.119,396.800 159.071,396.800 158.856 C 396.800 158.641,396.907 158.136,397.038 157.733 C 397.212 157.194,397.174 157.141,396.893 157.534 C 396.583 157.967,396.466 157.949,396.268 157.434 C 396.135 157.085,396.202 156.800,396.418 156.800 C 396.638 156.800,396.550 156.176,396.220 155.385 C 395.894 154.607,395.802 154.078,396.014 154.209 C 396.518 154.520,396.501 154.259,395.936 153.019 C 395.680 152.458,395.310 152.000,395.112 152.000 C 394.915 152.000,394.864 152.180,395.000 152.400 C 395.136 152.620,395.057 152.800,394.824 152.800 C 394.226 152.800,394.297 152.377,395.029 151.568 C 395.601 150.935,395.600 150.760,395.013 149.625 C 394.658 148.938,394.475 148.202,394.607 147.988 C 394.739 147.775,394.522 147.586,394.124 147.568 C 393.669 147.549,393.594 147.459,393.921 147.328 C 394.312 147.171,394.266 146.991,393.736 146.603 C 393.147 146.172,393.116 145.983,393.550 145.461 C 394.084 144.817,393.862 144.000,393.153 144.000 C 392.933 144.000,392.863 144.179,392.998 144.397 C 393.133 144.615,393.054 145.110,392.823 145.497 C 392.483 146.065,392.418 145.916,392.481 144.726 C 392.525 143.915,392.665 143.317,392.794 143.396 C 392.923 143.476,393.029 143.197,393.029 142.776 C 393.029 142.274,392.893 142.147,392.634 142.406 C 391.927 143.113,391.458 142.820,392.122 142.086 C 392.719 141.426,392.709 141.336,391.984 140.883 C 391.077 140.316,390.917 139.406,391.783 139.738 C 392.261 139.922,392.288 139.792,391.933 139.012 C 391.657 138.407,391.265 138.135,390.850 138.262 C 390.323 138.423,390.333 138.375,390.900 138.010 C 391.649 137.529,391.901 136.567,391.157 137.026 C 390.859 137.211,390.802 137.023,390.983 136.453 C 391.204 135.756,391.123 135.651,390.526 135.861 C 389.932 136.071,389.891 136.020,390.300 135.579 C 390.956 134.872,390.934 134.400,390.247 134.400 C 389.942 134.400,389.582 134.085,389.446 133.700 C 389.311 133.315,389.080 132.730,388.935 132.400 C 388.716 131.904,388.775 131.887,389.280 132.303 C 389.804 132.736,389.863 132.665,389.699 131.803 C 389.593 131.252,389.348 130.800,389.153 130.800 C 388.959 130.800,388.821 130.665,388.847 130.500 C 389.037 129.302,388.698 128.663,388.370 129.600 C 388.049 130.515,388.030 130.491,388.139 129.310 C 388.241 128.208,388.172 128.091,387.664 128.510 C 387.152 128.932,387.132 128.882,387.519 128.155 C 388.111 127.043,386.519 122.673,385.643 123.006 C 385.168 123.187,385.168 123.119,385.643 122.534 C 386.138 121.927,386.115 121.882,385.443 122.134 C 384.828 122.365,384.773 122.314,385.150 121.860 C 385.637 121.273,385.368 120.000,384.757 120.000 C 384.561 120.000,384.430 119.865,384.466 119.700 C 384.622 118.984,383.876 117.238,383.322 117.026 C 382.962 116.887,382.817 116.534,382.963 116.152 C 383.134 115.706,383.035 115.578,382.638 115.730 C 382.160 115.914,381.405 114.971,381.608 114.445 C 381.641 114.359,381.428 114.121,381.134 113.914 C 380.710 113.617,380.724 113.576,381.200 113.720 C 381.530 113.819,381.751 114.116,381.690 114.380 C 381.630 114.644,381.757 114.750,381.973 114.617 C 382.425 114.338,382.091 113.200,381.557 113.200 C 381.361 113.200,381.221 113.065,381.247 112.900 C 381.380 112.061,381.151 111.583,380.738 111.838 C 380.466 112.006,380.384 111.949,380.539 111.698 C 380.876 111.154,380.423 109.938,379.986 110.209 C 379.804 110.321,379.525 110.202,379.366 109.945 C 379.185 109.652,379.250 109.584,379.538 109.762 C 380.191 110.165,380.087 109.619,379.200 108.000 C 378.390 106.521,378.081 106.633,378.849 108.126 C 379.288 108.980,379.279 108.979,378.416 108.081 C 377.707 107.343,377.628 107.048,378.016 106.581 C 378.382 106.140,378.384 106.000,378.025 106.000 C 377.754 106.000,377.681 105.787,377.853 105.500 C 378.057 105.160,377.937 105.176,377.477 105.549 C 376.695 106.183,376.556 105.618,377.300 104.831 C 377.714 104.393,377.628 104.390,376.800 104.817 C 375.896 105.282,375.851 105.269,376.333 104.685 C 377.031 103.838,376.597 102.545,375.521 102.263 C 374.863 102.091,374.770 101.919,375.111 101.507 C 375.556 100.971,375.158 99.821,374.515 99.780 C 372.845 99.676,371.825 98.125,373.137 97.688 C 373.395 97.602,373.508 97.375,373.390 97.183 C 373.271 96.992,372.865 96.944,372.487 97.076 C 371.955 97.263,371.903 97.206,372.259 96.820 C 372.610 96.439,372.431 95.859,371.499 94.361 C 370.308 92.444,369.802 92.033,369.533 92.761 C 369.460 92.959,369.136 92.835,368.813 92.484 C 368.294 91.921,368.301 91.877,368.874 92.096 C 369.768 92.439,370.050 92.041,369.562 91.128 C 369.266 90.577,368.905 90.435,368.276 90.622 C 367.479 90.859,367.462 90.834,368.088 90.341 C 368.734 89.833,368.726 89.739,367.961 88.800 C 367.267 87.948,367.209 87.929,367.573 88.674 C 368.129 89.812,368.111 90.018,367.479 89.775 C 366.903 89.554,365.393 87.200,365.826 87.200 C 365.976 87.200,365.870 86.926,365.592 86.591 C 365.164 86.075,365.202 86.021,365.843 86.236 C 366.430 86.434,366.372 86.279,365.581 85.546 C 365.021 85.025,364.759 84.690,365.000 84.800 C 365.241 84.910,364.979 84.575,364.419 84.056 C 363.859 83.537,363.649 83.248,363.954 83.413 C 364.259 83.579,364.082 83.138,363.562 82.434 C 363.041 81.730,362.552 81.344,362.474 81.577 C 362.397 81.810,362.162 82.000,361.953 82.000 C 361.717 82.000,361.722 81.719,361.967 81.261 C 362.239 80.753,362.219 80.379,361.901 80.061 C 361.303 79.463,360.668 79.463,361.038 80.062 C 361.215 80.348,361.148 80.415,360.862 80.238 C 360.608 80.081,360.400 79.683,360.400 79.353 C 360.400 78.979,360.589 78.866,360.900 79.053 C 361.205 79.237,361.174 79.075,360.819 78.638 C 360.262 77.952,360.226 77.953,359.947 78.661 C 359.787 79.068,359.630 79.310,359.598 79.200 C 359.304 78.201,359.342 77.600,359.697 77.600 C 359.932 77.600,359.798 77.240,359.400 76.800 C 359.002 76.360,358.322 76.000,357.889 76.000 C 357.285 76.000,357.203 75.878,357.538 75.475 C 358.079 74.823,355.789 71.842,354.984 72.151 C 354.466 72.349,353.795 71.272,354.191 70.876 C 354.306 70.761,354.400 70.877,354.400 71.133 C 354.400 71.390,354.608 71.600,354.862 71.600 C 355.119 71.600,354.994 71.235,354.578 70.775 C 354.167 70.322,353.539 70.027,353.182 70.121 C 352.811 70.218,352.533 70.050,352.533 69.728 C 352.533 69.380,352.775 69.258,353.167 69.407 C 353.515 69.540,353.180 69.008,352.422 68.225 C 351.664 67.442,350.764 66.846,350.422 66.900 C 350.008 66.967,349.815 66.707,349.846 66.123 C 349.894 65.214,348.117 63.205,347.138 63.061 C 346.287 62.937,344.922 61.414,345.026 60.705 C 345.076 60.360,344.469 59.475,343.676 58.739 C 342.884 58.002,342.474 57.715,342.766 58.100 C 343.452 59.003,342.895 59.003,341.863 58.100 C 341.423 57.715,341.194 57.625,341.355 57.900 C 341.517 58.178,341.446 58.400,341.194 58.400 C 340.945 58.400,340.810 58.085,340.894 57.700 C 340.979 57.315,341.302 57.058,341.613 57.130 C 342.010 57.221,341.957 57.016,341.435 56.439 C 341.027 55.988,340.552 55.706,340.379 55.813 C 340.206 55.920,339.780 55.723,339.432 55.375 C 339.085 55.027,338.800 54.837,338.800 54.952 C 338.800 55.068,338.305 54.699,337.700 54.133 C 337.095 53.567,336.643 52.952,336.695 52.766 C 336.748 52.581,336.491 52.544,336.126 52.684 C 335.627 52.875,335.524 52.775,335.714 52.280 C 336.088 51.304,334.085 49.031,333.372 49.623 C 333.077 49.868,332.628 49.941,332.375 49.784 C 332.040 49.578,332.063 49.408,332.457 49.162 C 332.876 48.901,332.692 48.525,331.646 47.512 C 330.902 46.790,330.410 46.413,330.553 46.672 C 330.696 46.932,330.626 47.261,330.397 47.402 C 330.168 47.544,330.030 47.421,330.090 47.130 C 330.158 46.803,329.894 46.645,329.400 46.717 C 328.744 46.812,328.708 46.761,329.200 46.430 C 329.718 46.082,329.684 45.910,328.949 45.173 C 328.309 44.532,328.020 44.445,327.787 44.821 C 327.586 45.147,327.639 45.223,327.938 45.038 C 328.192 44.881,328.400 44.958,328.400 45.210 C 328.400 45.461,328.175 45.588,327.900 45.492 C 327.625 45.396,327.446 45.050,327.503 44.723 C 327.559 44.396,327.244 43.802,326.803 43.402 C 326.361 43.003,326.000 42.814,326.000 42.982 C 326.000 43.151,325.685 42.945,325.300 42.525 C 324.915 42.106,324.761 42.000,324.957 42.291 C 325.153 42.581,325.198 42.935,325.057 43.076 C 324.916 43.218,324.800 43.113,324.800 42.843 C 324.800 42.573,324.592 42.481,324.338 42.638 C 324.063 42.808,323.985 42.749,324.144 42.491 C 324.291 42.253,323.958 41.550,323.404 40.929 C 322.850 40.308,322.499 40.097,322.625 40.460 C 322.751 40.822,322.634 41.255,322.365 41.421 C 322.046 41.619,321.979 41.557,322.173 41.244 C 322.778 40.265,321.183 38.543,320.492 39.431 C 319.922 40.162,319.905 40.163,320.153 39.449 C 320.483 38.498,319.740 37.571,318.905 37.892 C 318.495 38.049,318.368 37.976,318.547 37.686 C 318.857 37.185,317.024 35.817,316.029 35.807 C 315.684 35.803,315.402 35.575,315.401 35.300 C 315.400 35.025,315.249 34.812,315.064 34.827 C 314.879 34.841,314.455 34.526,314.121 34.127 C 313.648 33.559,313.656 33.637,314.158 34.486 C 315.050 35.995,314.960 36.184,313.859 35.114 C 313.342 34.611,312.994 33.993,313.087 33.740 C 313.179 33.488,313.034 33.145,312.765 32.979 C 312.439 32.777,312.379 32.843,312.586 33.178 C 312.830 33.572,312.714 33.582,312.048 33.226 C 311.582 32.976,311.200 32.678,311.200 32.562 C 311.200 32.447,311.425 32.469,311.700 32.611 C 311.975 32.753,311.755 32.508,311.211 32.066 C 310.667 31.624,310.101 31.337,309.953 31.429 C 309.805 31.521,309.582 31.329,309.457 31.004 C 309.332 30.679,308.972 30.513,308.656 30.634 C 308.340 30.755,307.945 30.634,307.779 30.365 C 307.573 30.032,307.643 29.979,308.000 30.200 C 308.354 30.419,308.427 30.368,308.226 30.042 C 307.997 29.671,307.782 29.680,307.289 30.081 C 306.744 30.524,306.688 30.499,306.908 29.913 C 307.049 29.535,306.965 29.102,306.721 28.951 C 306.452 28.785,306.389 28.859,306.562 29.138 C 306.730 29.410,306.596 29.600,306.236 29.600 C 305.821 29.600,305.709 29.376,305.887 28.900 C 306.119 28.283,306.068 28.266,305.465 28.757 C 305.089 29.063,304.665 29.198,304.524 29.057 C 304.382 28.916,304.471 28.800,304.721 28.800 C 304.971 28.800,305.072 28.531,304.946 28.202 C 304.819 27.874,304.570 27.695,304.392 27.805 C 304.214 27.915,303.992 27.869,303.900 27.702 C 303.807 27.536,303.784 27.619,303.848 27.887 C 303.912 28.155,303.812 28.469,303.624 28.585 C 303.217 28.837,302.707 27.674,303.010 27.184 C 303.267 26.768,301.810 25.923,301.453 26.281 C 301.314 26.420,301.197 26.278,301.194 25.967 C 301.189 25.493,301.131 25.490,300.842 25.947 C 300.446 26.571,299.400 26.102,299.400 25.300 C 299.400 25.025,299.220 24.818,299.000 24.840 C 298.780 24.862,298.649 25.055,298.710 25.270 C 298.770 25.484,298.623 25.538,298.383 25.389 C 298.142 25.241,298.052 24.842,298.182 24.503 C 298.379 23.988,298.317 23.971,297.800 24.400 C 297.282 24.830,297.221 24.811,297.422 24.287 C 297.686 23.598,296.528 22.791,295.700 23.087 C 295.425 23.186,295.095 22.993,294.967 22.659 C 294.839 22.324,294.480 22.148,294.170 22.267 C 293.860 22.386,293.493 22.186,293.354 21.823 C 293.214 21.460,291.489 20.362,289.520 19.382 C 285.664 17.462,285.411 17.371,285.825 18.040 C 286.016 18.349,285.844 18.345,285.248 18.026 C 284.782 17.776,284.400 17.388,284.400 17.162 C 284.400 16.937,284.220 16.864,284.000 17.000 C 283.780 17.136,283.600 17.090,283.600 16.898 C 283.600 16.346,280.797 15.154,280.273 15.482 C 279.392 16.033,278.896 15.918,279.083 15.205 C 279.229 14.645,278.736 14.291,276.734 13.522 C 274.798 12.778,274.170 12.673,274.071 13.074 C 274.000 13.363,273.780 13.600,273.583 13.600 C 273.386 13.600,273.323 13.344,273.444 13.031 C 273.569 12.705,273.307 12.271,272.831 12.017 C 272.136 11.644,271.996 11.688,271.975 12.286 C 271.955 12.850,271.873 12.811,271.588 12.100 C 271.225 11.197,270.400 10.850,270.400 11.600 C 270.400 11.820,270.028 12.000,269.573 12.000 C 268.909 12.000,268.800 11.831,269.019 11.139 C 269.233 10.467,269.157 10.331,268.672 10.517 C 268.331 10.648,267.964 10.540,267.857 10.278 C 267.731 9.966,267.652 10.001,267.632 10.376 C 267.608 10.799,267.442 10.746,267.008 10.176 C 266.495 9.504,266.361 9.481,266.014 10.000 C 265.664 10.523,265.611 10.516,265.606 9.947 C 265.597 8.976,263.919 8.662,263.250 9.506 C 262.746 10.142,262.718 10.125,262.913 9.300 C 263.150 8.294,262.829 8.150,262.021 8.900 C 261.639 9.255,261.561 9.261,261.753 8.920 C 262.260 8.017,259.760 7.306,258.945 8.122 C 258.792 8.275,258.292 8.389,257.833 8.375 C 257.033 8.350,257.036 8.335,257.900 7.988 C 258.395 7.789,258.800 7.519,258.800 7.389 C 258.800 7.259,258.620 7.264,258.400 7.400 C 258.180 7.536,258.000 7.421,258.000 7.144 C 258.000 6.777,257.880 6.760,257.560 7.080 C 257.240 7.400,256.913 7.313,256.360 6.760 C 255.524 5.924,254.580 5.720,255.047 6.476 C 255.209 6.738,254.661 6.532,253.830 6.019 C 252.581 5.247,252.255 5.181,251.952 5.642 C 251.649 6.103,251.512 6.075,251.163 5.482 C 250.874 4.991,250.482 4.847,249.920 5.025 C 249.374 5.199,249.191 5.138,249.373 4.844 C 249.568 4.528,249.351 4.514,248.609 4.797 C 247.786 5.110,247.522 5.061,247.330 4.562 C 247.137 4.059,247.023 4.039,246.761 4.463 C 246.500 4.885,246.332 4.892,245.937 4.497 C 245.541 4.101,245.551 4.000,245.987 4.000 C 246.287 4.000,246.429 3.895,246.301 3.768 C 246.173 3.640,245.671 3.748,245.186 4.007 C 244.701 4.267,244.413 4.302,244.547 4.085 C 244.681 3.868,244.422 3.594,243.971 3.477 C 243.471 3.346,243.066 3.484,242.933 3.831 C 242.813 4.144,242.554 4.400,242.357 4.400 C 241.907 4.400,242.069 3.511,242.600 3.062 C 242.830 2.868,242.689 2.825,242.267 2.962 C 241.864 3.093,241.359 3.200,241.144 3.200 C 240.929 3.200,240.881 3.408,241.038 3.662 C 241.216 3.950,241.148 4.015,240.855 3.834 C 240.598 3.675,240.491 3.377,240.617 3.172 C 240.744 2.968,240.612 2.779,240.324 2.753 C 239.341 2.664,238.600 2.879,238.306 3.340 C 238.109 3.648,238.010 3.596,238.006 3.180 C 238.002 2.714,237.629 2.585,236.500 2.661 C 235.062 2.756,235.049 2.747,236.200 2.428 C 237.261 2.133,236.712 1.761,235.500 1.953 C 235.335 1.979,235.200 1.820,235.200 1.600 C 235.200 1.380,234.908 1.200,234.551 1.200 C 233.992 1.200,233.979 1.293,234.451 1.865 C 234.949 2.469,234.916 2.486,234.100 2.051 C 233.395 1.676,233.200 1.678,233.200 2.062 C 233.200 2.332,232.956 2.219,232.658 1.811 C 232.317 1.345,231.864 1.167,231.437 1.330 C 231.035 1.485,230.858 1.429,231.003 1.195 C 231.351 0.632,230.662 0.706,230.021 1.300 C 229.581 1.708,229.528 1.671,229.729 1.100 C 229.891 0.639,229.774 0.400,229.387 0.400 C 229.064 0.400,228.797 0.715,228.794 1.100 C 228.789 1.623,228.704 1.668,228.457 1.279 C 228.275 0.992,227.963 0.796,227.763 0.843 C 227.564 0.891,226.893 0.720,226.274 0.465 C 224.894 -0.105,224.800 -0.107,224.800 0.424 C 224.800 0.657,225.025 0.720,225.300 0.565 C 225.683 0.349,225.691 0.400,225.335 0.786 C 224.860 1.301,223.833 0.993,224.176 0.439 C 224.280 0.271,224.110 0.133,223.800 0.133 C 223.489 0.133,223.124 0.418,222.989 0.767 C 222.772 1.326,222.680 1.315,222.208 0.673 C 221.567 -0.197,221.204 -0.249,220.751 0.466 C 220.565 0.760,220.409 0.813,220.406 0.585 C 220.403 0.357,220.036 0.143,219.591 0.109 C 219.073 0.070,218.879 0.219,219.050 0.524 C 219.235 0.853,219.151 0.845,218.779 0.500 C 218.059 -0.168,216.652 -0.168,217.053 0.500 C 217.288 0.891,217.226 0.897,216.767 0.526 C 215.928 -0.152,184.072 -0.152,183.233 0.526 C 182.774 0.897,182.712 0.891,182.947 0.500 C 183.144 0.172,182.992 -0.000,182.504 -0.000 C 182.095 -0.000,181.518 0.225,181.221 0.500 C 180.790 0.900,180.739 0.900,180.965 0.500 C 181.120 0.225,181.076 0.000,180.866 0.000 C 180.657 0.000,180.363 0.315,180.214 0.700 C 179.957 1.362,179.914 1.361,179.412 0.679 C 179.015 0.140,178.828 0.090,178.672 0.479 C 178.514 0.873,178.455 0.860,178.432 0.424 C 178.409 0.004,178.245 0.058,177.829 0.624 C 177.301 1.340,177.237 1.347,176.990 0.710 C 176.754 0.103,176.652 0.091,176.133 0.610 C 175.449 1.294,174.400 1.395,174.400 0.776 C 174.400 0.543,174.580 0.464,174.800 0.600 C 175.020 0.736,175.200 0.657,175.200 0.424 C 175.200 -0.140,174.815 -0.107,173.528 0.564 M147.600 6.649 C 147.600 7.180,147.491 7.208,147.000 6.800 C 146.670 6.526,146.400 6.234,146.400 6.151 C 146.400 6.068,146.670 6.000,147.000 6.000 C 147.330 6.000,147.600 6.292,147.600 6.649 M289.642 20.518 C 289.128 21.032,288.607 20.635,288.988 20.020 C 289.135 19.782,289.439 19.700,289.662 19.839 C 289.936 20.007,289.929 20.231,289.642 20.518 M84.148 35.392 C 83.810 36.272,84.181 36.546,84.762 35.845 C 85.090 35.451,85.107 35.189,84.817 35.010 C 84.584 34.867,84.283 35.038,84.148 35.392 M222.866 90.602 C 224.001 91.390,224.980 92.554,225.700 93.974 L 226.800 96.143 226.800 134.672 L 226.800 173.200 264.736 173.200 C 305.342 173.200,304.753 173.173,307.580 175.186 C 310.646 177.369,310.600 176.998,310.600 199.400 C 310.600 221.739,310.594 221.806,308.400 224.000 C 305.486 226.914,307.264 226.800,264.727 226.800 L 226.800 226.800 226.800 264.727 C 226.800 306.182,226.840 305.437,224.501 307.803 C 221.786 310.549,223.216 310.397,200.074 310.399 C 177.440 310.400,178.437 310.497,175.888 308.060 C 173.097 305.391,173.200 307.052,173.200 264.727 L 173.200 226.800 135.684 226.800 C 94.033 226.800,94.735 226.841,92.066 224.280 C 89.494 221.813,89.600 222.859,89.600 199.888 L 89.600 178.937 90.821 177.094 C 91.630 175.873,92.675 174.939,93.921 174.326 L 95.800 173.400 134.490 173.294 L 173.181 173.188 173.299 134.694 C 173.426 93.364,173.376 94.339,175.505 92.198 C 178.480 89.205,177.986 89.260,201.266 89.336 L 221.132 89.400 222.866 90.602 M371.154 95.149 C 371.114 95.698,371.079 95.691,370.924 95.100 C 370.824 94.715,370.575 94.400,370.371 94.400 C 370.167 94.400,370.000 94.198,370.000 93.951 C 370.000 93.641,370.185 93.656,370.600 94.000 C 370.930 94.274,371.179 94.791,371.154 95.149 M373.043 98.569 C 373.164 98.882,373.538 99.244,373.875 99.374 C 374.315 99.542,374.420 99.429,374.245 98.972 C 374.110 98.621,374.000 98.259,374.000 98.167 C 374.000 98.075,373.736 98.000,373.413 98.000 C 373.069 98.000,372.916 98.236,373.043 98.569 M11.115 129.500 C 10.983 129.994,11.050 130.507,11.264 130.640 C 11.822 130.984,11.905 130.737,11.612 129.600 C 11.356 128.605,11.354 128.604,11.115 129.500 M9.061 135.287 C 8.761 136.436,8.917 136.545,9.507 135.600 C 9.769 135.181,9.828 134.741,9.637 134.623 C 9.447 134.505,9.188 134.804,9.061 135.287 M11.074 269.500 C 10.978 269.665,11.045 270.160,11.222 270.600 C 11.503 271.298,11.547 271.260,11.572 270.300 C 11.600 269.215,11.412 268.914,11.074 269.500 M388.400 270.176 C 388.400 271.402,388.628 271.501,388.916 270.400 C 389.031 269.961,388.962 269.500,388.762 269.377 C 388.563 269.254,388.400 269.613,388.400 270.176 M22.400 292.476 C 22.400 293.002,21.491 292.673,21.292 292.075 C 21.194 291.782,21.377 291.693,21.767 291.843 C 22.115 291.976,22.400 292.261,22.400 292.476 M376.216 296.773 C 376.071 297.008,375.648 297.194,375.276 297.187 C 374.683 297.176,374.694 297.103,375.371 296.591 C 376.193 295.970,376.652 296.068,376.216 296.773 M39.200 321.400 C 39.474 321.730,39.878 322.000,40.098 322.000 C 40.321 322.000,40.278 321.735,40.000 321.400 C 39.726 321.070,39.322 320.800,39.102 320.800 C 38.879 320.800,38.922 321.065,39.200 321.400 M43.967 325.420 C 44.132 325.318,44.267 325.497,44.267 325.818 C 44.267 326.776,43.374 326.475,43.326 325.500 C 43.301 325.005,43.369 324.826,43.475 325.102 C 43.581 325.379,43.803 325.522,43.967 325.420 M284.627 382.356 C 284.488 382.581,284.128 382.671,283.828 382.555 C 283.129 382.287,282.633 383.050,283.255 383.434 C 283.562 383.624,283.616 383.549,283.412 383.219 C 283.184 382.851,283.321 382.784,283.916 382.973 C 284.673 383.213,285.535 382.601,285.080 382.147 C 284.970 382.037,284.766 382.131,284.627 382.356 M277.030 385.552 C 276.731 386.035,275.200 386.404,275.200 385.992 C 275.200 385.809,275.515 385.576,275.900 385.476 C 277.064 385.171,277.257 385.184,277.030 385.552 M145.528 392.939 C 145.250 393.236,144.703 393.395,144.312 393.293 C 143.162 392.992,143.496 392.400,144.816 392.400 C 145.818 392.400,145.943 392.495,145.528 392.939 " stroke="none" fill="#4cac4c" fill-rule="evenodd"></path><path id="path4" d="M189.700 90.300 C 195.365 90.362,204.635 90.362,210.300 90.300 C 215.965 90.237,211.330 90.186,200.000 90.186 C 188.670 90.186,184.035 90.237,189.700 90.300 M176.993 91.659 C 173.989 94.298,174.223 90.939,174.000 134.600 L 173.800 173.800 134.533 174.000 C 112.937 174.110,95.177 174.290,95.067 174.400 C 94.797 174.669,172.356 174.470,173.500 174.198 L 174.400 173.985 174.418 135.292 C 174.438 91.056,174.219 93.603,178.200 91.144 C 178.860 90.737,179.181 90.402,178.914 90.401 C 178.647 90.401,177.782 90.967,176.993 91.659 M225.002 94.487 C 225.331 95.305,225.614 96.475,225.632 97.087 C 225.649 97.699,225.757 97.965,225.872 97.679 C 226.181 96.907,225.676 94.651,224.997 93.769 C 224.477 93.095,224.478 93.184,225.002 94.487 M226.332 174.092 C 226.493 174.253,244.289 174.433,265.879 174.492 C 287.469 174.552,305.044 174.510,304.934 174.400 C 304.824 174.290,287.027 174.110,265.387 174.000 C 243.746 173.890,226.171 173.932,226.332 174.092 M92.051 176.591 C 91.143 177.576,90.401 178.611,90.401 178.891 C 90.402 179.171,90.737 178.852,91.145 178.183 C 91.553 177.514,92.467 176.479,93.174 175.883 C 93.882 175.287,94.290 174.800,94.082 174.800 C 93.873 174.800,92.959 175.606,92.051 176.591 M307.647 176.582 C 308.223 177.252,308.893 178.160,309.135 178.600 C 309.377 179.040,309.581 179.168,309.588 178.885 C 309.595 178.601,308.925 177.693,308.100 176.867 C 307.265 176.030,307.064 175.904,307.647 176.582 M90.186 199.800 C 90.186 211.020,90.237 215.668,90.300 210.128 C 90.362 204.588,90.362 195.408,90.300 189.728 C 90.237 184.048,90.186 188.580,90.186 199.800 M309.786 200.000 C 309.786 211.330,309.837 215.965,309.900 210.300 C 309.962 204.635,309.962 195.365,309.900 189.700 C 309.837 184.035,309.786 188.670,309.786 200.000 M308.694 222.103 L 307.988 223.400 308.794 222.456 C 309.480 221.652,309.846 220.794,309.500 220.803 C 309.445 220.804,309.082 221.389,308.694 222.103 M92.000 223.353 C 94.319 225.957,91.463 225.780,134.600 226.000 L 173.800 226.200 174.000 265.467 C 174.110 287.063,174.290 304.824,174.400 304.934 C 174.651 305.185,174.463 226.781,174.210 226.100 C 174.064 225.705,165.955 225.600,135.513 225.598 C 94.273 225.595,95.009 225.631,92.489 223.493 C 91.114 222.327,91.077 222.316,92.000 223.353 M306.456 224.413 C 305.216 225.446,305.775 225.435,307.091 224.400 C 307.650 223.960,307.949 223.606,307.754 223.613 C 307.559 223.621,306.975 223.981,306.456 224.413 M265.347 225.500 C 233.688 225.585,226.413 225.702,226.055 226.134 C 225.613 226.666,225.158 305.375,225.600 304.934 C 225.710 304.824,225.890 287.063,226.000 265.467 L 226.200 226.200 265.467 226.000 C 287.063 225.890,304.868 225.665,305.033 225.500 C 305.198 225.335,305.078 225.244,304.767 225.298 C 304.455 225.352,286.716 225.443,265.347 225.500 M175.114 306.200 C 175.341 306.640,176.038 307.449,176.663 307.999 L 177.800 308.997 176.603 307.599 C 174.707 305.382,174.680 305.358,175.114 306.200 M223.626 307.307 C 222.487 308.711,222.442 308.829,223.363 308.000 C 224.320 307.138,225.456 305.586,225.114 305.607 C 225.051 305.611,224.382 306.376,223.626 307.307 M189.900 309.900 C 195.455 309.962,204.545 309.962,210.100 309.900 C 215.655 309.837,211.110 309.786,200.000 309.786 C 188.890 309.786,184.345 309.837,189.900 309.900 " stroke="none" fill="#64bc64" fill-rule="evenodd"></path><path id="path5" d="M191.127 90.700 C 196.258 90.763,204.538 90.763,209.527 90.700 C 214.517 90.636,210.320 90.584,200.200 90.584 C 190.080 90.584,185.997 90.636,191.127 90.700 M178.394 91.541 C 177.042 92.259,175.198 94.464,175.201 95.359 C 175.202 95.602,175.538 95.260,175.948 94.600 C 176.945 92.994,178.341 91.792,179.800 91.282 C 180.460 91.052,180.727 90.849,180.394 90.832 C 180.060 90.814,179.160 91.133,178.394 91.541 M221.212 91.700 C 222.192 92.195,223.400 93.212,223.897 93.959 C 224.394 94.707,224.800 95.125,224.800 94.890 C 224.800 93.697,221.354 90.800,219.935 90.800 C 219.658 90.800,220.232 91.205,221.212 91.700 M224.898 134.526 C 224.832 160.916,224.935 173.904,225.214 174.426 C 225.619 175.183,226.482 175.200,264.830 175.200 C 310.530 175.200,306.713 174.800,308.670 179.800 C 308.968 180.563,309.150 180.738,309.170 180.280 C 309.220 179.090,308.091 177.310,306.532 176.121 L 305.062 175.000 265.575 174.894 C 233.272 174.808,226.008 174.692,225.646 174.256 C 225.331 173.876,225.174 162.435,225.100 134.561 L 224.996 95.400 224.898 134.526 M174.898 135.100 C 174.844 156.715,174.755 174.443,174.700 174.495 C 174.645 174.547,156.780 174.684,135.000 174.799 L 95.400 175.008 134.851 175.104 C 167.690 175.184,174.378 175.109,174.753 174.657 C 175.082 174.260,175.176 163.560,175.100 134.957 L 174.996 95.800 174.898 135.100 M93.121 176.405 C 91.681 177.592,90.544 179.933,90.936 180.903 C 91.049 181.182,91.151 181.075,91.168 180.660 C 91.229 179.235,92.527 177.142,93.950 176.176 C 94.740 175.639,95.205 175.200,94.984 175.200 C 94.763 175.200,93.924 175.742,93.121 176.405 M90.806 219.233 C 90.809 219.765,90.989 220.470,91.206 220.800 C 91.482 221.222,91.523 220.985,91.342 220.000 C 91.025 218.275,90.798 217.949,90.806 219.233 M308.664 220.142 C 307.360 225.108,310.251 224.800,264.896 224.800 C 234.990 224.800,225.647 224.913,225.280 225.280 C 224.912 225.648,224.823 234.899,224.898 264.980 L 224.996 304.200 225.100 265.239 C 225.174 237.512,225.332 226.124,225.646 225.744 C 226.008 225.308,233.273 225.192,265.575 225.106 L 305.062 225.000 306.532 223.879 C 308.148 222.646,309.327 220.720,309.106 219.673 C 309.011 219.224,308.863 219.380,308.664 220.142 M91.975 222.321 C 92.447 223.235,94.631 224.807,95.400 224.786 C 95.620 224.780,95.440 224.577,95.000 224.335 C 94.560 224.093,93.592 223.333,92.850 222.647 C 91.714 221.598,91.575 221.546,91.975 222.321 M135.100 225.100 C 156.715 225.157,174.443 225.248,174.495 225.302 C 174.547 225.356,174.684 243.130,174.799 264.800 L 175.008 304.200 175.104 264.980 C 175.178 234.901,175.088 225.648,174.720 225.280 C 174.352 224.912,165.101 224.823,135.020 224.898 L 95.800 224.996 135.100 225.100 M175.214 304.600 C 175.193 305.369,176.765 307.553,177.679 308.025 C 178.454 308.425,178.402 308.286,177.353 307.150 C 176.667 306.408,175.907 305.440,175.665 305.000 C 175.423 304.560,175.220 304.380,175.214 304.600 M224.234 305.094 C 223.856 306.283,221.536 308.297,220.000 308.768 L 218.600 309.197 219.934 309.002 C 222.104 308.684,225.557 305.423,224.666 304.533 C 224.560 304.427,224.365 304.679,224.234 305.094 M179.200 308.794 C 179.530 309.011,180.235 309.191,180.767 309.194 C 182.051 309.202,181.725 308.975,180.000 308.658 C 179.015 308.477,178.778 308.518,179.200 308.794 " stroke="none" fill="#b4dcb4" fill-rule="evenodd"></path><path id="path6" d="M190.700 89.900 C 195.815 89.963,204.185 89.963,209.300 89.900 C 214.415 89.836,210.230 89.785,200.000 89.785 C 189.770 89.785,185.585 89.836,190.700 89.900 M226.095 135.076 C 226.043 156.238,226.135 173.636,226.300 173.738 C 226.572 173.906,226.569 146.588,226.294 110.400 C 226.236 102.810,226.147 113.914,226.095 135.076 M115.900 173.900 C 126.515 173.959,143.885 173.959,154.500 173.900 C 165.115 173.841,156.430 173.792,135.200 173.792 C 113.970 173.792,105.285 173.841,115.900 173.900 M310.184 200.000 C 310.184 210.010,310.236 214.105,310.300 209.100 C 310.363 204.095,310.363 195.905,310.300 190.900 C 310.236 185.895,310.184 189.990,310.184 200.000 " stroke="none" fill="#5cb464" fill-rule="evenodd"></path><path id="path7" d="M257.800 8.000 C 257.029 8.331,257.031 8.345,257.876 8.372 C 258.358 8.387,258.864 8.220,259.000 8.000 C 259.292 7.527,258.901 7.527,257.800 8.000 M288.988 20.020 C 288.607 20.635,289.128 21.032,289.642 20.518 C 289.929 20.231,289.936 20.007,289.662 19.839 C 289.439 19.700,289.135 19.782,288.988 20.020 M96.372 27.833 C 95.713 28.627,96.009 28.765,97.123 28.185 C 97.839 27.811,97.913 27.652,97.452 27.475 C 97.126 27.350,96.640 27.511,96.372 27.833 M302.806 27.451 C 302.818 28.139,303.498 28.889,303.746 28.488 C 303.881 28.269,303.723 27.868,303.396 27.596 C 303.068 27.324,302.803 27.259,302.806 27.451 M335.710 51.995 C 335.680 52.402,335.938 52.844,336.284 52.977 C 336.778 53.167,336.816 53.101,336.460 52.672 C 336.211 52.372,336.107 52.026,336.230 51.903 C 336.353 51.781,336.299 51.585,336.110 51.468 C 335.921 51.351,335.741 51.588,335.710 51.995 M61.881 54.241 C 61.014 55.398,61.174 55.463,62.359 54.436 C 62.843 54.016,63.096 53.584,62.920 53.477 C 62.744 53.370,62.277 53.714,61.881 54.241 M57.362 58.462 C 57.185 58.748,57.252 58.815,57.538 58.638 C 57.792 58.481,58.000 58.543,58.000 58.776 C 58.000 59.009,58.174 59.200,58.387 59.200 C 58.601 59.200,58.671 58.930,58.545 58.600 C 58.270 57.884,57.756 57.824,57.362 58.462 M40.374 77.831 C 39.701 78.643,40.624 78.857,41.348 78.057 C 41.916 77.430,41.922 77.333,41.395 77.333 C 41.061 77.333,40.601 77.557,40.374 77.831 M366.264 88.400 C 366.654 89.060,367.249 89.597,367.586 89.594 C 368.076 89.589,368.092 89.519,367.666 89.249 C 367.372 89.063,367.102 88.751,367.066 88.555 C 367.030 88.360,366.865 88.245,366.700 88.300 C 366.535 88.355,366.400 88.130,366.400 87.800 C 366.400 87.470,366.210 87.200,365.977 87.200 C 365.744 87.200,365.872 87.738,366.264 88.400 M190.728 89.500 C 196.078 89.563,204.718 89.563,209.928 89.500 C 215.137 89.436,210.760 89.385,200.200 89.385 C 189.640 89.385,185.377 89.437,190.728 89.500 M220.869 89.991 C 221.456 90.169,222.176 90.437,222.469 90.587 C 222.761 90.737,222.651 90.576,222.224 90.230 C 221.796 89.883,221.076 89.615,220.624 89.634 C 219.963 89.662,220.011 89.733,220.869 89.991 M223.994 91.803 C 225.587 93.721,225.721 93.845,225.286 92.996 C 225.059 92.553,224.452 91.834,223.937 91.398 C 223.033 90.634,223.035 90.648,223.994 91.803 M174.679 93.174 C 174.306 93.806,174.000 94.559,174.000 94.846 C 174.000 95.134,174.357 94.668,174.794 93.812 C 175.733 91.971,175.653 91.526,174.679 93.174 M226.498 134.700 L 226.400 173.600 264.900 173.502 L 303.400 173.404 265.102 173.300 L 226.804 173.196 226.700 134.498 L 226.596 95.800 226.498 134.700 M173.200 135.398 L 173.200 173.196 134.700 173.300 L 96.200 173.404 134.900 173.502 L 173.600 173.600 173.600 135.600 C 173.600 114.700,173.510 97.600,173.400 97.600 C 173.290 97.600,173.200 114.609,173.200 135.398 M372.769 97.700 C 372.490 98.612,372.587 99.186,373.049 99.363 C 373.497 99.535,373.532 99.420,373.212 98.823 C 372.919 98.275,372.944 98.009,373.303 97.864 C 373.697 97.705,373.696 97.657,373.300 97.632 C 373.025 97.614,372.786 97.645,372.769 97.700 M25.845 99.349 C 25.539 100.520,25.796 100.570,26.511 99.479 C 27.002 98.730,27.020 98.533,26.595 98.533 C 26.300 98.533,25.962 98.900,25.845 99.349 M389.124 132.600 C 389.326 133.040,389.592 133.670,389.714 134.000 C 389.907 134.518,389.941 134.515,389.968 133.976 C 389.986 133.634,389.720 133.004,389.378 132.576 C 388.766 131.812,388.762 131.813,389.124 132.600 M392.412 145.020 C 392.423 146.054,392.477 146.109,392.854 145.461 C 393.161 144.932,393.158 144.598,392.841 144.281 C 392.520 143.960,392.403 144.159,392.412 145.020 M308.399 176.300 C 308.922 177.015,309.413 177.600,309.489 177.600 C 309.793 177.600,308.801 176.100,308.145 175.567 C 307.713 175.216,307.810 175.496,308.399 176.300 M399.190 176.470 C 399.447 176.780,399.430 177.123,399.142 177.470 C 398.809 177.871,398.852 178.000,399.316 178.000 C 400.014 178.000,399.989 176.989,399.276 176.396 C 398.934 176.112,398.910 176.133,399.190 176.470 M89.693 199.726 C 89.627 214.681,89.731 221.108,90.047 221.726 C 90.594 222.795,93.236 225.600,93.695 225.600 C 93.878 225.600,93.385 225.035,92.599 224.345 C 90.105 222.155,90.217 223.210,89.993 200.000 L 89.786 178.600 89.693 199.726 M310.585 200.000 C 310.585 210.450,310.636 214.725,310.700 209.500 C 310.763 204.275,310.763 195.725,310.700 190.500 C 310.636 185.275,310.585 189.550,310.585 200.000 M308.704 223.244 C 308.101 224.100,307.687 224.800,307.783 224.800 C 308.069 224.800,310.126 221.992,309.956 221.833 C 309.870 221.754,309.307 222.388,308.704 223.244 M135.298 226.700 L 173.196 226.804 173.300 265.102 L 173.404 303.400 173.502 264.900 L 173.600 226.400 135.500 226.498 L 97.400 226.596 135.298 226.700 M226.498 264.900 L 226.596 303.400 226.700 265.102 L 226.804 226.804 265.102 226.700 L 303.400 226.596 264.900 226.498 L 226.400 226.400 226.498 264.900 M392.406 255.100 C 392.411 255.901,392.509 256.047,392.769 255.636 C 392.965 255.326,393.033 254.831,392.920 254.536 C 392.596 253.690,392.399 253.906,392.406 255.100 M391.860 257.693 C 391.731 258.184,391.755 258.715,391.913 258.872 C 392.071 259.029,392.238 258.627,392.284 257.979 C 392.383 256.580,392.186 256.447,391.860 257.693 M390.200 263.600 C 389.501 264.372,389.501 264.400,390.205 264.400 C 390.605 264.400,390.815 264.282,390.670 264.137 C 390.525 263.992,390.607 263.632,390.852 263.337 C 391.556 262.489,391.004 262.712,390.200 263.600 M11.548 269.337 C 11.793 269.632,11.875 269.992,11.730 270.137 C 11.585 270.282,11.677 270.400,11.933 270.400 C 12.468 270.400,12.491 270.303,12.157 269.433 C 12.024 269.085,11.732 268.800,11.508 268.800 C 11.253 268.800,11.267 268.999,11.548 269.337 M14.492 277.275 C 14.579 277.536,14.864 277.821,15.125 277.908 C 15.418 278.006,15.507 277.823,15.357 277.433 C 15.078 276.706,14.252 276.555,14.492 277.275 M21.292 292.075 C 21.491 292.673,22.400 293.002,22.400 292.476 C 22.400 292.261,22.115 291.976,21.767 291.843 C 21.377 291.693,21.194 291.782,21.292 292.075 M225.314 305.914 C 224.838 306.941,224.507 307.840,224.578 307.912 C 224.650 307.983,225.110 307.213,225.600 306.200 C 226.090 305.187,226.422 304.288,226.336 304.203 C 226.250 304.117,225.791 304.887,225.314 305.914 M174.000 305.489 C 174.000 305.721,174.371 306.336,174.824 306.856 L 175.647 307.800 174.945 306.600 C 174.020 305.021,174.000 304.997,174.000 305.489 M30.500 307.809 C 30.500 308.372,30.613 308.693,30.750 308.521 C 30.888 308.350,31.144 308.101,31.319 307.969 C 31.494 307.837,31.382 307.517,31.069 307.257 C 30.602 306.870,30.500 306.969,30.500 307.809 M189.300 310.300 C 195.185 310.362,204.815 310.362,210.700 310.300 C 216.585 310.237,211.770 310.186,200.000 310.186 C 188.230 310.186,183.415 310.237,189.300 310.300 M359.779 320.766 C 359.903 320.967,359.779 321.212,359.502 321.311 C 359.226 321.410,359.090 321.590,359.200 321.711 C 359.310 321.832,359.825 321.587,360.344 321.166 C 361.284 320.404,361.285 320.400,360.421 320.400 C 359.943 320.400,359.655 320.565,359.779 320.766 M46.400 329.115 C 46.400 329.356,46.583 329.666,46.807 329.804 C 47.030 329.942,47.128 330.193,47.024 330.361 C 46.920 330.529,47.097 330.667,47.418 330.667 C 48.148 330.667,48.155 330.701,47.200 329.600 C 46.760 329.093,46.400 328.875,46.400 329.115 M346.400 336.824 C 346.400 337.057,346.222 337.137,346.005 337.003 C 345.778 336.863,345.711 337.023,345.847 337.379 C 346.187 338.263,346.800 338.148,346.800 337.200 C 346.800 336.760,346.710 336.400,346.600 336.400 C 346.490 336.400,346.400 336.591,346.400 336.824 M330.000 352.328 C 329.670 352.478,329.342 352.865,329.270 353.189 C 329.174 353.628,329.352 353.587,329.970 353.027 C 331.096 352.008,331.104 351.828,330.000 352.328 M87.700 365.865 C 87.425 365.976,87.200 366.226,87.200 366.421 C 87.200 366.616,87.500 366.660,87.866 366.519 C 88.349 366.334,88.442 366.409,88.204 366.794 C 87.991 367.139,88.031 367.228,88.321 367.049 C 88.649 366.846,88.587 365.450,88.257 365.632 C 88.226 365.649,87.975 365.754,87.700 365.865 M96.519 372.131 C 96.609 372.389,96.976 372.548,97.335 372.484 C 97.781 372.405,97.912 372.564,97.749 372.988 C 97.581 373.425,97.690 373.540,98.115 373.377 C 98.447 373.250,98.838 373.338,98.983 373.573 C 99.128 373.808,99.460 374.000,99.720 374.000 C 99.979 374.000,99.741 373.582,99.190 373.071 C 98.053 372.017,96.257 371.385,96.519 372.131 M282.900 382.265 C 282.215 382.541,282.269 383.067,282.982 383.067 C 283.303 383.067,283.453 382.886,283.317 382.665 C 283.167 382.424,283.342 382.369,283.755 382.527 C 284.163 382.684,284.342 382.630,284.197 382.395 C 283.935 381.972,283.688 381.947,282.900 382.265 M122.576 385.020 C 123.436 385.662,124.168 385.796,123.830 385.248 C 123.710 385.055,123.205 384.794,122.706 384.668 C 121.832 384.448,121.827 384.460,122.576 385.020 M275.900 385.476 C 275.515 385.576,275.200 385.809,275.200 385.992 C 275.200 386.404,276.731 386.035,277.030 385.552 C 277.257 385.184,277.064 385.171,275.900 385.476 M144.221 392.966 C 144.647 393.277,145.088 393.412,145.202 393.266 C 145.316 393.120,145.572 392.865,145.771 392.700 C 145.970 392.535,145.529 392.400,144.790 392.400 C 143.534 392.400,143.497 392.437,144.221 392.966 M162.406 396.900 C 162.402 397.370,162.695 397.590,163.300 397.568 C 163.901 397.547,164.001 397.461,163.600 397.308 C 163.270 397.183,162.868 396.882,162.706 396.640 C 162.525 396.369,162.410 396.468,162.406 396.900 " stroke="none" fill="#4cac54" fill-rule="evenodd"></path><path id="path8" d="M237.031 2.350 C 236.912 2.543,237.281 2.700,237.850 2.700 C 238.582 2.700,238.726 2.599,238.343 2.356 C 237.647 1.915,237.301 1.914,237.031 2.350 M128.900 11.612 C 127.689 12.099,127.744 12.478,128.959 12.016 C 129.486 11.815,130.055 11.775,130.223 11.926 C 130.391 12.076,130.399 11.975,130.241 11.700 C 130.082 11.425,129.918 11.211,129.876 11.225 C 129.834 11.239,129.395 11.413,128.900 11.612 M114.525 17.900 C 114.106 18.285,113.967 18.467,114.218 18.303 C 114.469 18.140,114.770 18.103,114.887 18.221 C 115.005 18.338,115.208 18.157,115.338 17.817 C 115.644 17.020,115.464 17.039,114.525 17.900 M338.302 54.266 C 338.579 54.377,338.685 54.678,338.538 54.934 C 338.392 55.190,338.420 55.266,338.600 55.102 C 338.781 54.938,339.591 55.478,340.400 56.302 C 341.209 57.126,342.215 58.060,342.635 58.378 C 343.056 58.695,342.326 57.840,341.013 56.478 C 339.699 55.115,338.439 54.014,338.213 54.032 C 337.986 54.049,338.026 54.154,338.302 54.266 M58.585 56.879 C 57.493 58.022,56.920 58.716,57.311 58.421 C 58.434 57.573,61.134 54.800,60.838 54.800 C 60.691 54.800,59.677 55.736,58.585 56.879 M54.764 60.715 C 54.014 61.548,53.358 62.493,53.306 62.815 C 53.248 63.182,53.397 63.116,53.706 62.638 C 53.978 62.219,54.714 61.274,55.341 60.538 C 56.906 58.704,56.450 58.843,54.764 60.715 M344.629 60.438 C 345.273 61.229,345.881 61.808,345.979 61.725 C 346.078 61.642,345.551 60.995,344.809 60.287 L 343.458 59.000 344.629 60.438 M173.792 135.000 C 173.792 156.340,173.841 165.011,173.900 154.270 C 173.959 143.528,173.959 126.068,173.900 115.470 C 173.841 104.871,173.792 113.660,173.792 135.000 M246.130 173.900 C 256.872 173.959,274.332 173.959,284.930 173.900 C 295.529 173.841,286.740 173.792,265.400 173.792 C 244.060 173.792,235.389 173.841,246.130 173.900 M115.730 226.300 C 126.472 226.359,143.932 226.359,154.530 226.300 C 165.129 226.241,156.340 226.192,135.000 226.192 C 113.660 226.192,104.989 226.241,115.730 226.300 M246.130 226.300 C 256.872 226.359,274.332 226.359,284.930 226.300 C 295.529 226.241,286.740 226.192,265.400 226.192 C 244.060 226.192,235.389 226.241,246.130 226.300 M173.792 265.400 C 173.792 286.740,173.841 295.411,173.900 284.670 C 173.959 273.928,173.959 256.468,173.900 245.870 C 173.841 235.271,173.792 244.060,173.792 265.400 M226.192 265.400 C 226.192 286.740,226.241 295.411,226.300 284.670 C 226.359 273.928,226.359 256.468,226.300 245.870 C 226.241 235.271,226.192 244.060,226.192 265.400 M345.200 338.811 C 344.870 339.184,343.342 340.819,341.804 342.444 C 339.252 345.142,339.320 345.096,342.586 341.915 C 344.554 339.999,346.082 338.364,345.982 338.282 C 345.882 338.200,345.530 338.438,345.200 338.811 M54.800 339.178 C 54.800 339.525,60.754 345.393,60.888 345.178 C 60.950 345.080,59.605 343.636,57.900 341.968 C 56.195 340.301,54.800 339.045,54.800 339.178 M121.838 385.139 C 121.710 385.346,121.899 385.629,122.260 385.768 C 123.144 386.107,123.350 385.823,122.645 385.238 C 122.303 384.954,121.977 384.914,121.838 385.139 " stroke="none" fill="#54b454" fill-rule="evenodd"></path></g></svg>